<svg xmlns="http://www.w3.org/2000/svg" width="58.937" height="58.937" viewBox="0 0 58.937 58.937"><defs><style>.a{fill:none;fill-rule:evenodd;}.b{fill:#2e3e48;}</style></defs><path class="a" d="M0,0H58.937V58.937H0Z" transform="translate(0 0)"/><path class="b" d="M49.2,29.841a7.769,7.769,0,1,0-9.723,7.485v8.7a9.056,9.056,0,0,1-18.111,0V28.561A14.388,14.388,0,0,0,33.826,14.348V1.945A1.95,1.95,0,0,0,31.872,0H25.644a1.945,1.945,0,1,0,0,3.89h4.273V14.348a10.5,10.5,0,0,1-21.008,0V3.891h4.274a1.946,1.946,0,1,0,0-3.891H6.954A1.95,1.95,0,0,0,5,1.945v12.4A14.39,14.39,0,0,0,17.459,28.561v17.47a12.965,12.965,0,0,0,25.931,0v-8.7A7.757,7.757,0,0,0,49.2,29.841Zm-7.768,3.841a3.842,3.842,0,1,1,3.86-3.841A3.856,3.856,0,0,1,41.435,33.682Z" transform="translate(2.367 0)"/></svg>