<svg xmlns="http://www.w3.org/2000/svg" width="41.781" height="41.781" viewBox="0 0 41.781 41.781"><defs><style>.a{fill:none;}.a,.b{fill-rule:evenodd;}.b{fill:#212121;}</style></defs><path class="a" d="M0,0H41.781V41.781H0Z"/><path class="b" d="M29.557,2a1.565,1.565,0,0,1,1.567,1.567V5.134h2.611A6.268,6.268,0,0,1,40,11.4V33.335A6.268,6.268,0,0,1,33.737,39.6H8.667A6.268,6.268,0,0,1,2.4,33.337V11.4A6.268,6.268,0,0,1,8.666,5.134h2.612V3.567a1.567,1.567,0,0,1,3.134,0V5.134H27.991V3.567A1.565,1.565,0,0,1,29.557,2Zm7.312,15.668H5.534V33.335a3.134,3.134,0,0,0,3.134,3.134H33.736a3.134,3.134,0,0,0,3.134-3.134ZM24.9,22.305a1.566,1.566,0,1,1,2.214,2.214l-6.265,6.267a1.561,1.561,0,0,1-2.215,0L15.5,27.653a1.566,1.566,0,1,1,2.215-2.214v0l2.026,2.025ZM11.277,8.267H8.667A3.134,3.134,0,0,0,5.534,11.4v3.134H36.869V11.4a3.134,3.134,0,0,0-3.134-3.134H31.124V9.834a1.567,1.567,0,0,1-3.134,0V8.267H14.412V9.834a1.567,1.567,0,0,1-3.134,0V8.267Z" transform="translate(0.107 0.089)"/></svg>