<svg xmlns="http://www.w3.org/2000/svg" width="41.884" height="41.781" viewBox="0 0 41.884 41.781"><defs><style>.a{fill:none;fill-rule:evenodd;}.b{fill:#2e3e48;}</style></defs><path class="a" d="M0,0H41.781V41.781H0Z" transform="translate(0.045)"/><path class="b" d="M12.714,16.885a1.211,1.211,0,0,1,1.7.232l7.709,10.138,6.039-6.4a1.211,1.211,0,0,1,1.761,0L41.181,32.8A2.42,2.42,0,0,1,39.42,36.88H2.378A2.42,2.42,0,0,1,.449,33l12.033-15.88a1.256,1.256,0,0,1,.232-.233Zm.735,4.474L4.211,33.552h33.1l-8.275-8.776L24.525,29.56A3.314,3.314,0,0,1,22.184,30.6l-.243,0a3.308,3.308,0,0,1-2.459-1.3l-6.033-7.935ZM29.775,4.5a5.371,5.371,0,1,1-5.383,5.371A5.385,5.385,0,0,1,29.775,4.5Zm0,3.267a2.106,2.106,0,1,0,2.11,2.1,2.109,2.109,0,0,0-2.11-2.1Z" transform="translate(0.043 0.2)"/></svg>