<svg xmlns="http://www.w3.org/2000/svg" width="609" height="436.456" viewBox="0 0 609 436.456"><defs><style>.a{fill:#e0e0e0;}.b{fill:#f5f5f5;}.c{fill:#fff;}.d{fill:none;stroke:#fbfbfb;stroke-miterlimit:10;stroke-width:0.25px;}.e{fill:#263238;}.f{fill:#ff7e02;}.g{fill:#ffbe9d;}.h{fill:#eb996e;}.i{opacity:0.3;}.j{fill:#fafafa;}.k{fill:#455a64;}.l{fill:#b78876;}.m{fill:#7c5142;}.n{fill:#b15701;}.o{opacity:0.6;}.p{fill:#e27d1e;}</style></defs><g transform="translate(-674 -176.544)"><g transform="translate(0 -779)"><rect class="a" width="57.344" height="83.118" transform="translate(1057.887 1045.985)"/></g><g transform="translate(0 -779)"><rect class="b" width="57.344" height="83.118" transform="translate(1055.014 1045.985)"/></g><g transform="translate(0 -779)"><rect class="c" width="43.095" height="65.113" transform="translate(1062.139 1054.987)"/></g><g transform="translate(0 -779)"><path class="a" d="M1105.234,1120.1s-.006-.111-.009-.319,0-.521-.008-.923c0-.818-.01-2.016-.018-3.571-.008-3.121-.021-7.669-.038-13.413-.017-11.482-.042-27.741-.07-46.887l.143.143-43.09.012h-.005l.156-.155c-.012,24.563-.023,47.21-.032,65.113l-.124-.125,31.367.066,8.666.031,2.275.014c.515.005.787.014.787.014s-.254.009-.761.013l-2.251.014-8.638.032-31.445.065h-.124v-.124c-.009-17.9-.02-40.55-.032-65.113v-.157h.161l43.09.013h.143v.144c-.029,19.185-.053,35.476-.071,46.98-.016,5.731-.029,10.268-.038,13.381-.008,1.543-.013,2.731-.017,3.543q-.006.591-.009.907C1105.239,1120,1105.234,1120.1,1105.234,1120.1Z"/></g><g transform="translate(0 -779)"><path class="d" d="M1103.236,1055.422"/></g><g transform="translate(0 -779)"><path class="a" d="M1112.519,1045.985a9.92,9.92,0,0,1-1.022,1.485c-.666.891-1.611,2.1-2.69,3.413s-2.088,2.471-2.835,3.295a10.033,10.033,0,0,1-1.261,1.288,10.705,10.705,0,0,1,1.094-1.432l2.761-3.349,2.758-3.351A10.837,10.837,0,0,1,1112.519,1045.985Z"/></g><g transform="translate(0 -779)"><path class="c" d="M1105.453,1119.891a53.365,53.365,0,0,0,7.517,9.4"/></g><g transform="translate(0 -779)"><path class="a" d="M1112.97,1129.291a8.512,8.512,0,0,1-1.311-1.192,42.024,42.024,0,0,1-5.331-6.668,8.618,8.618,0,0,1-.875-1.54,11.913,11.913,0,0,1,1.058,1.417c.632.887,1.52,2.1,2.557,3.4s2.026,2.43,2.752,3.242A12.016,12.016,0,0,1,1112.97,1129.291Z"/></g><g transform="translate(0 -779)"><path class="c" d="M1055.006,1129.037l7.511-9.267"/></g><g transform="translate(0 -779)"><path class="a" d="M1062.517,1119.77a114.219,114.219,0,0,1-7.511,9.267,114.394,114.394,0,0,1,7.511-9.267Z"/></g><g transform="translate(0 -779)"><path class="a" d="M1055.014,1045.985a103.322,103.322,0,0,1,7.047,8.91,103.322,103.322,0,0,1-7.047-8.91Z"/></g><g transform="translate(0 -779)"><rect class="a" width="14.43" height="40.97" transform="translate(1077.377 1068.208)"/></g><g transform="translate(0 -779)"><path class="b" d="M1001.163,1278.569c-5.259,1.529-9.511,5.67-12,10.548a36.016,36.016,0,0,0-3.441,15.918c-.145,10.6,4.45,21.9,9.779,31.054,9.771-6.558,13.5-19.692,14.97-26.473,2.327-10.718.023-31.5-9.308-31.047"/></g><g transform="translate(0 -779)"><path class="b" d="M983.084,1352.027c2.159-5.724.526-12.513-3.492-17.126a23.116,23.116,0,0,0-16.242-7.435c-2.826-.141-5.953.29-7.848,2.39a7.447,7.447,0,0,0-1.067,7.47,15.107,15.107,0,0,0,4.847,6.163c7.013,5.751,14.855,10.029,23.8,8.538"/></g><g transform="translate(0 -779)"><path class="a" d="M990.42,1377.511c.142-.017.114-2.679-.316-7a32.528,32.528,0,0,0-1.744-7.455,71.423,71.423,0,0,0-3.506-8.661,34.825,34.825,0,0,0-10.886-12.969,25.235,25.235,0,0,0-4.533-2.475,5.592,5.592,0,0,0-1.818-.531c-.086.2,2.456,1.113,5.857,3.685a37.354,37.354,0,0,1,10.321,12.828,83.756,83.756,0,0,1,3.533,8.487,35.8,35.8,0,0,1,1.944,7.207C989.91,1374.867,990.236,1377.534,990.42,1377.511Z"/></g><g transform="translate(0 -779)"><path class="a" d="M1001.519,1294.551a20.314,20.314,0,0,0-.794,3.455c-.436,2.237-1.022,5.481-1.711,9.5-1.376,8.03-3.155,19.146-4.818,31.468s-2.85,23.528-3.54,31.648c-.345,4.06-.586,7.349-.706,9.625a20.23,20.23,0,0,0-.074,3.544,20.333,20.333,0,0,0,.534-3.5c.28-2.475.644-5.7,1.082-9.582.9-8.092,2.222-19.259,3.88-31.573,1.732-12.2,3.3-23.228,4.471-31.495.542-3.872.993-7.086,1.338-9.553A20.288,20.288,0,0,0,1001.519,1294.551Z"/></g><g transform="translate(0 -779)"><path class="b" d="M995.847,1357.73a40.726,40.726,0,0,1,29.258-22.984c3.23-.595,7.207-.48,8.982,2.284s.216,6.45-1.737,9.1a34.789,34.789,0,0,1-36.527,12.493"/></g><g transform="translate(0 -779)"><path class="a" d="M1020.63,1343.261a5.691,5.691,0,0,0-1.824.393c-1.157.311-2.8.87-4.8,1.618a45.931,45.931,0,0,0-14.426,8.505,28.8,28.8,0,0,0-5.742,7.324,27.916,27.916,0,0,0-2.621,7.125,27.62,27.62,0,0,0-.639,5.05,5.669,5.669,0,0,0,.063,1.866c.238.019.333-2.641,1.391-6.716a30.052,30.052,0,0,1,2.764-6.8,29.626,29.626,0,0,1,5.589-6.98c4.722-4.337,10.114-6.845,13.942-8.6C1018.212,1344.352,1020.691,1343.443,1020.63,1343.261Z"/></g><g transform="translate(0 -779)"><path class="b" d="M1219.1,1078.169s-11.987-3.537-16.834,24.027-5.239,42.724-5.239,42.724-1.682,5.98-6.113,3.766-11.969-10.037-17.291-6.583c-5.519,3.583-5.443,10.944-1.251,20.51s12.608,30.864,13.362,32.793c.74,1.893.5,5.088-2.756,4.064s-24.046-13.537-29.393-3.319,10.712,34.951,12.415,37.688,1.511,4.189.321,5.36-7.779-3.693-13.836-7.01-13.663-6.1-16.254.054,2.331,26.895,31.809,54l14.481,11.666,17.529-6.452c36.671-16.093,48.047-34.12,47.59-40.781s-8.553-6.492-15.358-5.318-14.616,3.641-15.362,2.148-.458-2.929,2.04-4.966,25.7-20.232,23.958-31.632-25.465-6.3-28.882-6.385-2.6-3.186-1.29-4.738c1.338-1.58,16.2-19,23.267-26.693s9.523-14.631,5.462-19.809c-3.915-4.992-13.58-.034-18.49.625s-4.563-5.543-4.563-5.543,4.542-14.47,8.887-42.117-8.457-28.137-8.457-28.137"/></g><g transform="translate(0 -779)"><path class="a" d="M1214.713,1102.847s-.009.2-.059.584c-.057.411-.136.977-.237,1.7-.227,1.526-.554,3.727-.973,6.547-.851,5.685-2.144,13.9-3.782,24.047-3.266,20.293-8.018,48.287-13.368,79.186s-10.173,58.892-13.552,79.164c-1.677,10.118-3.035,18.314-3.979,24.012-.47,2.812-.836,5.006-1.09,6.527-.127.724-.227,1.287-.3,1.695-.07.381-.123.574-.123.574s.01-.2.06-.584c.057-.41.135-.976.237-1.7.226-1.525.553-3.725.972-6.546.852-5.683,2.145-13.9,3.782-24.045,3.267-20.293,8.019-48.29,13.371-79.2s10.171-58.879,13.55-79.152c1.676-10.117,3.035-18.314,3.979-24.012.469-2.813.835-5.007,1.089-6.528l.3-1.7C1214.661,1103.04,1214.713,1102.847,1214.713,1102.847Z"/></g><g transform="translate(0 -779)"><path class="a" d="M1183.723,1153.472a5.464,5.464,0,0,1,.827,1.063c.5.7,1.193,1.746,2.036,3.041,1.68,2.594,3.906,6.237,6.288,10.3,2.325,4.009,4.426,7.634,6.05,10.435q1.089,1.856,1.847,3.152a.676.676,0,1,1-.206.132c-.5-.706-1.192-1.748-2.022-3.053-1.655-2.611-3.833-6.282-6.213-10.347l-6.123-10.387-1.864-3.144A5.587,5.587,0,0,1,1183.723,1153.472Z"/></g><g transform="translate(0 -779)"><path class="a" d="M1203.13,1182.471c-.1-.145,7.21-5.071,16.314-11s16.566-10.618,16.661-10.472-7.209,5.07-16.317,11S1203.225,1182.617,1203.13,1182.471Z"/></g><g transform="translate(0 -779)"><path class="a" d="M1192.772,1229.559a5.777,5.777,0,0,1,1.29-.472l3.57-1.088c3.012-.921,7.168-2.207,11.7-3.791s8.6-3.139,11.529-4.293l3.474-1.362a.69.69,0,1,1,.1.226c-.794.384-1.954.92-3.4,1.547-2.892,1.262-6.939,2.9-11.492,4.477s-8.738,2.811-11.787,3.624c-1.526.4-2.765.71-3.628.9A5.726,5.726,0,0,1,1192.772,1229.559Z"/></g><g transform="translate(0 -779)"><path class="a" d="M1169.445,1207.192a5,5,0,0,1,1.008.774c.621.529,1.505,1.309,2.589,2.283,2.167,1.947,5.13,4.668,8.377,7.7s6.164,5.809,8.253,7.839c1.044,1.015,1.882,1.845,2.451,2.429a.638.638,0,1,1-.167.179c-.621-.529-1.505-1.309-2.588-2.282-2.167-1.947-5.131-4.669-8.379-7.7s-6.163-5.807-8.252-7.838c-1.044-1.015-1.882-1.845-2.451-2.428A4.963,4.963,0,0,1,1169.445,1207.192Z"/></g><g transform="translate(0 -779)"><path class="a" d="M1155.02,1247.6a7.982,7.982,0,0,1,1.278,1.005l3.327,2.914c2.79,2.481,6.615,5.94,10.813,9.789s7.977,7.363,10.691,9.927l3.19,3.062a7.988,7.988,0,0,1,1.112,1.186,8.139,8.139,0,0,1-1.277-1.005l-3.327-2.914c-2.79-2.481-6.615-5.941-10.815-9.791s-7.976-7.361-10.689-9.926l-3.191-3.061A8.1,8.1,0,0,1,1155.02,1247.6Z"/></g><g transform="translate(0 -779)"><path class="a" d="M1184.892,1274.612a9.265,9.265,0,0,1,1.62-.636l4.477-1.542c3.779-1.3,8.992-3.119,14.691-5.284s10.816-4.242,14.507-5.775l4.375-1.81a9.313,9.313,0,0,1,1.635-.6,9.2,9.2,0,0,1-1.535.822c-1.006.491-2.472,1.178-4.3,2-3.65,1.64-8.745,3.795-14.46,5.955s-10.956,3.922-14.775,5.119c-1.911.593-3.462,1.057-4.542,1.352A9.1,9.1,0,0,1,1184.892,1274.612Z"/></g><g transform="translate(0 -779)"><path class="b" d="M816.893,1322.387c26.4-15.06,34.973-46.716,36.641-75.726.279-4.842,1.276-9.883-.632-14.329s-7-7.831-11.51-6.193c-3.74,1.359-5.684,5.386-8.006,8.651a28.358,28.358,0,0,1-12.312,9.776c-3.221,1.314-7.113,1.94-9.994-.011-3.954-2.679-3.918-8.477-3.448-13.276q1.314-13.416,2.627-26.829c.47-4.8.933-9.7-.142-14.393s-3.988-9.229-8.437-10.927-10.34.418-11.735,5.029c-.581,1.919-.369,3.986-.684,5.966s-1.447,4.1-3.391,4.483c-1.968.388-3.764-1.15-5.071-2.687-4.511-5.3-7.3-11.854-9.875-18.353s-5.042-13.136-9.054-18.835-9.848-10.459-16.688-11.479-14.555,2.554-16.912,9.144c-2.362,6.61.957,13.839,4.753,19.712a107.606,107.606,0,0,0,20.365,23.314c1.415,1.213,2.949,2.524,3.365,4.356.749,3.3-2.575,6.2-5.832,6.96-3.688.864-7.537.136-11.321.234s-7.991,1.378-9.731,4.786c-2.416,4.727,1.217,10.247,4.946,13.986a92.185,92.185,0,0,0,25.734,18.174c3.414,1.616,7.027,3.091,9.648,5.833s3.944,7.215,1.914,10.439-6.548,3.905-10.185,2.879-6.763-3.336-10.167-4.989c-6.37-3.095-14.932-3.421-19.681,1.894-3.121,3.494-3.844,8.691-2.848,13.288s3.491,8.706,6.191,12.532c9.438,13.376,22.061,24.6,36.882,31.315s28.869,9.445,44.59,5.276"/></g><g transform="translate(0 -779)"><path class="a" d="M815.308,1343.862a211.71,211.71,0,0,0-4.219-40.288c-2.92-14.985-7.482-31.145-12.834-47.884q-2.03-6.268-4.009-12.378c-1.325-4.06-2.638-8.086-4.167-11.944a215.767,215.767,0,0,0-10.053-21.669c-3.531-6.738-7.127-13-10.532-18.836-3.42-5.828-6.709-11.2-9.916-15.969a171.123,171.123,0,0,0-16.791-21.355c-2.172-2.357-3.917-4.13-5.117-5.316l-1.371-1.341a3.707,3.707,0,0,0-.489-.434,3.388,3.388,0,0,0,.424.5l1.309,1.4c1.156,1.227,2.86,3.037,4.991,5.427a181.054,181.054,0,0,1,16.525,21.474c3.165,4.777,6.415,10.155,9.8,15.992s6.943,12.114,10.446,18.845a218.3,218.3,0,0,1,9.965,21.6c1.515,3.84,2.813,7.832,4.138,11.9s2.651,8.2,4,12.373c5.347,16.726,9.922,32.839,12.877,47.77a215.3,215.3,0,0,1,4.392,40.13"/></g><g transform="translate(0 -779)"><path class="a" d="M789.83,1231.31a9.867,9.867,0,0,0,.656-2.005c.374-1.3.852-3.207,1.409-5.568,1.117-4.718,2.437-11.286,3.864-18.533s2.838-13.782,4.024-18.47c.586-2.345,1.079-4.24,1.438-5.544a9.745,9.745,0,0,0,.459-2.06,9.522,9.522,0,0,0-.788,1.957c-.461,1.276-1.048,3.15-1.712,5.483-1.347,4.663-2.86,11.2-4.288,18.458-1.391,7.155-2.649,13.628-3.61,18.574-.448,2.232-.827,4.112-1.131,5.621A9.54,9.54,0,0,0,789.83,1231.31Z"/></g><g transform="translate(0 -779)"><path class="a" d="M729.158,1214.118a13.46,13.46,0,0,0,2.435.52c1.571.286,3.847.688,6.641,1.275,5.6,1.128,13.276,2.957,21.659,5.346,8.381,2.4,15.873,4.9,21.239,6.868,2.692.963,4.848,1.8,6.343,2.371a13.27,13.27,0,0,0,2.355.812,13.2,13.2,0,0,0-2.223-1.135c-1.457-.67-3.584-1.6-6.254-2.643-5.325-2.122-12.812-4.725-21.218-7.138a218.773,218.773,0,0,0-21.784-5.105c-2.819-.508-5.117-.817-6.709-1A13.042,13.042,0,0,0,729.158,1214.118Z"/></g><g transform="translate(0 -779)"><path class="a" d="M810.434,1302.368a3.131,3.131,0,0,0,.492-.714c.341-.577.756-1.282,1.26-2.136,1.086-1.86,2.588-4.593,4.4-7.993,3.626-6.8,8.34-16.348,13.4-26.955s9.68-20.191,13.159-27.055c1.7-3.336,3.1-6.079,4.144-8.119.446-.886.814-1.616,1.115-2.216a3.185,3.185,0,0,0,.336-.8,3.248,3.248,0,0,0-.492.716c-.341.577-.757,1.281-1.26,2.135-1.086,1.859-2.588,4.592-4.4,7.993-3.627,6.8-8.34,16.347-13.4,26.959s-9.678,20.186-13.157,27.052c-1.7,3.334-3.1,6.08-4.144,8.117l-1.115,2.217A3.185,3.185,0,0,0,810.434,1302.368Z"/></g><g transform="translate(0 -779)"><path class="a" d="M730.828,1268.416a3.375,3.375,0,0,0,.784.41l2.309,1.017,8.523,3.651c7.2,3.085,17.086,7.46,28.008,12.308s20.865,9.139,28.127,12.075c3.631,1.47,6.58,2.629,8.635,3.388l2.37.861a3.169,3.169,0,0,0,.85.242,3.385,3.385,0,0,0-.784-.411l-2.309-1.015c-2.135-.916-5.015-2.149-8.521-3.651-7.2-3.084-17.088-7.46-28.013-12.31s-20.861-9.137-28.123-12.074c-3.63-1.47-6.58-2.629-8.636-3.388l-2.37-.861A3.186,3.186,0,0,0,730.828,1268.416Z"/></g><g transform="translate(0 -779)"><path class="a" d="M898.072,977.479v94.374H762.526l-4.883-93.714Z"/></g><g transform="translate(0 -779)"><rect class="c" width="93.515" height="135.546" transform="translate(757.643 1071.654) rotate(-90)"/></g><g transform="translate(0 -779)"><path class="a" d="M893.832,1072.3H757V977.5H893.832Zm-135.546-1.286h134.26V978.782H758.286Z"/></g><g transform="translate(0 -779)"><rect class="c" width="106.185" height="70.278" transform="translate(772.323 989.758)"/></g><g transform="translate(0 -779)"><path class="a" d="M878.508,989.757s-.182.012-.523.019l-1.51.018-5.832.037-21.882.082-76.438.152.308-.307c.008,21.472.017,45.263.027,70.269v.008l-.335-.335,106.185.068-.267.267c.059-21.387.107-38.922.14-51.133.03-6.1.053-10.871.069-14.14q.02-2.423.029-3.715c.01-.842.029-1.29.029-1.29s.019.409.029,1.234q.011,1.273.03,3.665c.015,3.255.038,8,.068,14.08.033,12.251.081,29.843.14,51.3v.267h-.268l-106.185.068h-.334v-.343c.009-25.006.019-48.8.027-70.269v-.308h.307l76.64.151,21.812.083,5.77.037,1.475.018C878.35,989.745,878.508,989.757,878.508,989.757Z"/></g><g transform="translate(0 -779)"><path class="a" d="M757.643,977.876a11.5,11.5,0,0,1,2.33,1.51c1.387,1,3.275,2.421,5.314,4.053s3.832,3.176,5.1,4.332a10.968,10.968,0,0,1,1.941,1.986c-.126.143-3.384-2.545-7.455-5.8S757.523,978.029,757.643,977.876Z"/></g><g transform="translate(0 -779)"><path class="a" d="M893.189,978.139c.114.145-3.079,2.864-7.132,6.071s-7.434,5.692-7.549,5.547,3.078-2.863,7.133-6.072S893.074,977.994,893.189,978.139Z"/></g><g transform="translate(0 -779)"><path class="c" d="M893.081,1071.667l-15.112-12.249"/></g><g transform="translate(0 -779)"><path class="a" d="M877.969,1059.418c.116-.143,3.594,2.482,7.767,5.864s7.462,6.242,7.345,6.385-3.593-2.481-7.767-5.864S877.852,1059.562,877.969,1059.418Z"/></g><g transform="translate(0 -779)"><path class="a" d="M757.643,1071.654c-.115-.145,3.045-2.836,7.057-6.009s7.359-5.628,7.473-5.483-3.044,2.835-7.058,6.009S757.757,1071.8,757.643,1071.654Z"/></g><g transform="translate(0 -779)"><rect class="a" width="23.532" height="66.813" transform="translate(793.883 1035.185) rotate(-90)"/></g><g transform="translate(0 -779)"><rect class="a" width="72.473" height="105.047" transform="translate(1138.591 955.545)"/></g><g transform="translate(0 -779)"><rect class="b" width="72.473" height="105.047" transform="translate(1134.961 955.545)"/></g><g transform="translate(0 -779)"><rect class="c" width="54.465" height="82.292" transform="translate(1143.965 966.922)"/></g><g transform="translate(0 -779)"><path class="a" d="M1198.43,1049.215s-.007-.14-.011-.4l-.011-1.167c-.005-1.034-.012-2.548-.022-4.513-.011-3.944-.027-9.692-.048-16.952-.022-14.511-.053-35.059-.089-59.257l.18.18-54.458.017h-.006l.2-.2c-.015,31.043-.029,59.666-.04,82.292l-.157-.157,39.643.082,10.953.04,2.875.018c.65.006.994.017.994.017s-.321.011-.961.017l-2.846.017-10.917.04-39.741.083h-.157v-.157c-.011-22.626-.025-51.249-.04-82.292v-.2h.2l54.458.017h.182v.181c-.036,24.246-.067,44.836-.089,59.376-.02,7.242-.037,12.976-.048,16.91-.01,1.95-.017,3.452-.022,4.478-.005.5-.008.88-.011,1.146S1198.43,1049.215,1198.43,1049.215Z"/></g><g transform="translate(0 -779)"><path class="d" d="M1195.9,967.471"/></g><g transform="translate(0 -779)"><path class="a" d="M1207.637,955.545a12.418,12.418,0,0,1-1.291,1.877c-.842,1.126-2.037,2.657-3.4,4.313s-2.638,3.122-3.582,4.165a12.512,12.512,0,0,1-1.6,1.627,13.58,13.58,0,0,1,1.384-1.809l3.489-4.233,3.486-4.236A13.691,13.691,0,0,1,1207.637,955.545Z"/></g><g transform="translate(0 -779)"><path class="c" d="M1198.707,1048.95a67.454,67.454,0,0,0,9.5,11.88"/></g><g transform="translate(0 -779)"><path class="a" d="M1208.207,1060.83a10.785,10.785,0,0,1-1.656-1.507,53.067,53.067,0,0,1-6.739-8.426,10.847,10.847,0,0,1-1.1-1.947,14.922,14.922,0,0,1,1.336,1.79c.8,1.122,1.922,2.656,3.232,4.3s2.56,3.071,3.479,4.1A15.144,15.144,0,0,1,1208.207,1060.83Z"/></g><g transform="translate(0 -779)"><path class="c" d="M1134.95,1060.509l9.493-11.712"/></g><g transform="translate(0 -779)"><path class="a" d="M1144.443,1048.8a144.094,144.094,0,0,1-9.493,11.712,144.143,144.143,0,0,1,9.493-11.712Z"/></g><g transform="translate(0 -779)"><path class="a" d="M1134.961,955.545a131.029,131.029,0,0,1,8.906,11.261,130.546,130.546,0,0,1-8.906-11.261Z"/></g><g transform="translate(0 -779)"><rect class="a" width="18.237" height="51.78" transform="translate(1163.224 983.631)"/></g><g transform="translate(0 -779)"><path class="e" d="M1226.339,1383.787c0,.164-111.384.3-248.751.3-137.415,0-248.775-.133-248.775-.3s111.36-.3,248.775-.3C1114.955,1383.489,1226.339,1383.622,1226.339,1383.787Z"/></g><g transform="translate(0 -779)"><path class="e" d="M1086.584,1185.926a19.752,19.752,0,0,1-5.9,19.32c-3.483,3.084-8.028,4.871-11.206,8.269a17.377,17.377,0,0,0-3.478,16.784,22.16,22.16,0,0,0,11.694,12.968,25.948,25.948,0,0,0,23.549-.8c8.843-5,13.991-15.017,15.295-25.091s-.745-20.275-3.4-30.078"/></g><g transform="translate(0 -779)"><path class="e" d="M1198.058,1363.552c9.152-1.5,17.727,1.3,26.781,3.3,2.44.54,4.993,1.011,7.415.4,3.926-1,6.716-4.82,7.323-8.825a14.463,14.463,0,0,0-2.314-10.023,9.528,9.528,0,0,0-3.131-3.111,10.9,10.9,0,0,0-4.377-1.189,31.269,31.269,0,0,0-16.129,3.042,47.85,47.85,0,0,0-13.38,9.7c-1.916,1.916-1.341,4.133-2.188,6.707"/></g><g transform="translate(0 -779)"><path class="e" d="M1012.555,1215.919a70.879,70.879,0,0,1,.531-26.252,34.6,34.6,0,0,1,4.52-11.952,7.718,7.718,0,0,1,3.356-3.149,5.862,5.862,0,0,1,5.959,1.4,10.024,10.024,0,0,1,2.825,7.678,24.7,24.7,0,0,1-2.036,8.143c-3.541,9.036-9.114,16.533-15.155,24.127"/></g><g transform="translate(0 -779)"><path class="f" d="M1189.815,1248.969c2.085,1.476,48.087,100.493,48.087,100.493h0a19.447,19.447,0,0,0-11.716-1.156l-2.493.665a41.425,41.425,0,0,0-12.526,5.712l-13.109,8.869h0a3.72,3.72,0,0,1-1.869-2.889l-.035-.379-35.64-61.17Z"/></g><g transform="translate(0 -779)"><path class="g" d="M1017.278,1091.383l12.253,69.672c3.948,9.373,49.955,66.185,49.955,66.185l-15.216,48.872-60.414-82.614a31.591,31.591,0,0,1-8.51-22.165l2.36-74.437Z"/></g><g transform="translate(0 -779)"><path class="f" d="M1082.506,1216.319l31.549,2.385,27.513,4.268s48.247,12.681,48.247,17.964c0,1.759-13.18,43.712-20.524,68.848a174.657,174.657,0,0,0-4.441,18.563l24.965,55.44h-118.7v-50.834s-7.969-66.692-6.6-75.8S1082.506,1216.319,1082.506,1216.319Z"/></g><g transform="translate(0 -779)"><path class="h" d="M1002.35,1063.234a139.367,139.367,0,0,1,2.165-21.16c.179-.991.582-2.195,1.581-2.326,1.233-.162,1.862,1.425,2.022,2.658a74.748,74.748,0,0,1-1.036,25.28"/></g><g transform="translate(0 -779)"><path class="f" d="M1016.379,1210.758c13.535-12.1,14-33.06,12.838-49.734a5.522,5.522,0,0,1,.529-3.584c1.289-1.845,4.435-1.161,5.7.7s1.189,4.292,1.072,6.539c.693-1.905,3.669-1.894,5.065-.423s1.63,3.663,1.793,5.685q.227,2.793.451,5.587l39.542,37.688s1.088-3.384,3.993-1.451,4.78,6.144,4.78,6.144l-27.867,60.827-51.719-62.923A20.963,20.963,0,0,1,1016.379,1210.758Z"/></g><g transform="translate(0 -779)"><path class="f" d="M1070.043,1252.846a52.752,52.752,0,0,0-9.075,17.712,32.229,32.229,0,0,0,.588,19.687,27.286,27.286,0,0,0,20.95,16.919"/></g><g transform="translate(0 -779)"><path class="g" d="M1198.058,1363.552l-1.5,20.235h29.312l6.873-35.738h0a36.918,36.918,0,0,0-24.78,7.766Z"/></g><g transform="translate(0 -779)"><path class="e" d="M1030.152,1206.282a9.607,9.607,0,0,1,.642-1.6c.46-1.009,1.073-2.493,1.772-4.345s1.439-4.093,2.135-6.615a71,71,0,0,0,2.45-16.8c.053-2.616-.006-4.975-.158-6.95s-.305-3.572-.457-4.67a9.686,9.686,0,0,1-.158-1.721,9.519,9.519,0,0,1,.387,1.685c.223,1.092.452,2.689.648,4.672a63.383,63.383,0,0,1,.286,6.995,65.613,65.613,0,0,1-2.469,16.937,63.85,63.85,0,0,1-2.271,6.622c-.754,1.844-1.43,3.31-1.955,4.292A9.569,9.569,0,0,1,1030.152,1206.282Z"/></g><g transform="translate(0 -779)"><path class="e" d="M1038.768,1195.671a26.875,26.875,0,0,1,1.222-2.9,42.939,42.939,0,0,0,3.383-14.644,27.035,27.035,0,0,1,.174-3.143,11.983,11.983,0,0,1,.247,3.155,34.569,34.569,0,0,1-3.421,14.806A12.071,12.071,0,0,1,1038.768,1195.671Z"/></g><g transform="translate(0 -779)"><path class="e" d="M1085.214,1227.288c-.09-.052.386-.8.663-2.142a11.409,11.409,0,0,0-.3-5.3,39.141,39.141,0,0,0-1.987-5.057,7.991,7.991,0,0,1-.79-2.144,9.615,9.615,0,0,1,1.168,1.96,26.037,26.037,0,0,1,2.182,5.081,10.394,10.394,0,0,1,.133,5.555A4.058,4.058,0,0,1,1085.214,1227.288Z"/></g><g transform="translate(0 -779)"><path class="e" d="M1078.334,1307.834a2.075,2.075,0,0,1-.5-.278l-1.355-.893c-1.165-.794-2.845-1.953-4.831-3.515a41.493,41.493,0,0,1-6.419-6.139,24.618,24.618,0,0,1-4.966-9.664,30.492,30.492,0,0,1-.656-10.859,42.606,42.606,0,0,1,1.957-8.663,59.141,59.141,0,0,1,2.179-5.566c.293-.642.527-1.137.7-1.467a2.057,2.057,0,0,1,.284-.492,17.681,17.681,0,0,1-.767,2.049c-.51,1.31-1.249,3.208-1.992,5.6a44.7,44.7,0,0,0-1.812,8.594,30.686,30.686,0,0,0,.687,10.653,24.527,24.527,0,0,0,4.815,9.465,43.416,43.416,0,0,0,6.257,6.157c1.94,1.6,3.58,2.8,4.7,3.654l1.289.984C1078.2,1307.688,1078.346,1307.817,1078.334,1307.834Z"/></g><g transform="translate(0 -779)"><path class="e" d="M1143.113,1319.146a1.8,1.8,0,0,1-.5.181c-.339.09-.831.259-1.485.387a29.062,29.062,0,0,1-5.6.672,31.451,31.451,0,0,1-29.807-18.854,29.021,29.021,0,0,1-1.794-5.353c-.166-.645-.224-1.162-.288-1.506a1.824,1.824,0,0,1-.052-.534,18.638,18.638,0,0,1,.564,1.983,33.714,33.714,0,0,0,1.953,5.235,31.9,31.9,0,0,0,29.418,18.608,33.761,33.761,0,0,0,5.567-.479A18.7,18.7,0,0,1,1143.113,1319.146Z"/></g><g transform="translate(0 -779)"><path class="e" d="M1161.307,1341.369c-.159-.042,1.353-6.363,3.378-14.116s3.8-14.008,3.955-13.967-1.353,6.361-3.379,14.117S1161.466,1341.41,1161.307,1341.369Z"/></g><g transform="translate(0 -779)"><path class="e" d="M1177.307,1327.946c-.141.084-4.738-7.431-10.265-16.782s-9.894-17-9.753-17.088,4.737,7.43,10.266,16.785S1177.449,1327.862,1177.307,1327.946Z"/></g><g transform="translate(0 -779)"><path class="e" d="M1221.151,1346.462c.012.112-1.664.253-4.272.911a33.761,33.761,0,0,0-4.475,1.483,33.249,33.249,0,0,0-9.708,6.138,33.623,33.623,0,0,0-3.259,3.406c-1.714,2.074-2.56,3.526-2.656,3.468a4.506,4.506,0,0,1,.527-1.058,22.235,22.235,0,0,1,1.8-2.673,29.432,29.432,0,0,1,3.216-3.547,31.032,31.032,0,0,1,9.875-6.243,29.619,29.619,0,0,1,4.583-1.384,22.167,22.167,0,0,1,3.187-.478A4.487,4.487,0,0,1,1221.151,1346.462Z"/></g><g transform="translate(0 -779)"><path class="e" d="M1226.752,1339.577c-.01.122-1.841-.1-4.773.153a30.433,30.433,0,0,0-5.075.89,30.69,30.69,0,0,0-11.206,5.615,30.418,30.418,0,0,0-3.751,3.533c-1.955,2.2-2.876,3.8-2.978,3.732a5.316,5.316,0,0,1,.6-1.143,11.167,11.167,0,0,1,.831-1.269,18.513,18.513,0,0,1,1.226-1.6,27.581,27.581,0,0,1,3.726-3.684,29.217,29.217,0,0,1,11.412-5.72,27.591,27.591,0,0,1,5.181-.778,18.489,18.489,0,0,1,2.012-.028,11.181,11.181,0,0,1,1.514.095A5.419,5.419,0,0,1,1226.752,1339.577Z"/></g><g class="i" transform="translate(0 -779)"><path d="M1104.8,1296.574c-2.695,5.1-.448,11.324,2.013,16.543,1.908,4.046,4.034,8.161,7.505,10.981a16.036,16.036,0,0,0,23.272-3.285c-14.528.061-28.567-9.871-33.345-23.591"/></g><g class="i" transform="translate(0 -779)"><path d="M1157.289,1294.076c-2.049,4.91-.5,11.624,1.651,16.488s4.432,10.3,2.7,15.328a6.668,6.668,0,0,0-.669,2.879c.12.988,1.188,1.929,2.072,1.472a2.278,2.278,0,0,0,.92-1.412l4.883-14.675"/></g><g transform="translate(0 -779)"><path class="j" d="M1049.127,1229.486a141.328,141.328,0,0,1,2.928-18.1c.163.026-.361,4.1-1.17,9.1S1049.29,1229.512,1049.127,1229.486Z"/></g><g transform="translate(0 -779)"><path class="j" d="M1037.077,1226.956c-.145.1-2.115-2.651-4.83-5.8s-5.124-5.525-5.005-5.653a40.438,40.438,0,0,1,9.835,11.456Z"/></g><g transform="translate(0 -779)"><path class="j" d="M1047.415,1197.508a9.258,9.258,0,0,1-1.291,2.056c-.869,1.218-2.131,2.858-3.609,4.6s-2.894,3.251-3.955,4.306a9.207,9.207,0,0,1-1.821,1.606c-.122-.12,2.383-2.83,5.322-6.3S1047.276,1197.406,1047.415,1197.508Z"/></g><g transform="translate(0 -779)"><path class="j" d="M1043.378,1183.116c-.164.065-.813-1.39-2.08-2.838-1.251-1.463-2.6-2.314-2.509-2.468a7.439,7.439,0,0,1,4.589,5.306Z"/></g><g transform="translate(0 -779)"><path class="j" d="M1032.955,1191.981a15.819,15.819,0,0,1-6.039.957,15.827,15.827,0,0,1,6.039-.957Z"/></g><g transform="translate(0 -779)"><path class="j" d="M1059.262,1204.688c-.183-.026.266-2.441-.379-5.32-.606-2.889-2.015-4.9-1.858-5a10.985,10.985,0,0,1,2.237,10.32Z"/></g><g transform="translate(0 -779)"><path class="j" d="M1073.318,1219.8c-.163.087-1.361-2.335-3.678-4.645-2.293-2.335-4.706-3.551-4.617-3.714a14.432,14.432,0,0,1,8.3,8.359Z"/></g><g transform="translate(0 -779)"><path class="j" d="M1050.758,1246.036a13.642,13.642,0,0,1-10.484-.36c.055-.173,2.329.547,5.227.633C1048.4,1246.422,1050.716,1245.86,1050.758,1246.036Z"/></g><g transform="translate(0 -779)"><path class="j" d="M1061.349,1251.461c-.164-.061.728-2.7,1.471-6.034s1.077-6.1,1.252-6.085a27.6,27.6,0,0,1-2.723,12.119Z"/></g><g transform="translate(0 -779)"><path class="j" d="M1084.473,1252.349a84.413,84.413,0,0,1-9.544-10.48,84.622,84.622,0,0,1,9.544,10.48Z"/></g><g transform="translate(0 -779)"><path class="j" d="M1095.255,1279.068a43.054,43.054,0,0,1-7.027-7.276,43.054,43.054,0,0,1,7.027,7.276Z"/></g><g transform="translate(0 -779)"><path class="j" d="M1075.227,1281.616a23.094,23.094,0,0,1-9.853,5.72c-.064-.162,2.279-1.178,4.986-2.758S1075.117,1281.48,1075.227,1281.616Z"/></g><g transform="translate(0 -779)"><path class="j" d="M1084.444,1307.042c-.172-.043.512-3.047.853-6.813.36-3.765.241-6.843.418-6.854a29.336,29.336,0,0,1-1.271,13.667Z"/></g><g transform="translate(0 -779)"><path class="j" d="M1119.1,1286.369a25.287,25.287,0,0,1-8.6-9.834c.152-.093,1.725,2.386,4.1,5.09C1116.963,1284.341,1119.21,1286.231,1119.1,1286.369Z"/></g><g transform="translate(0 -779)"><path class="j" d="M1131.762,1297.16c-.136-.107,1.6-2.483,3.537-5.535s3.374-5.62,3.528-5.542a36.2,36.2,0,0,1-7.065,11.077Z"/></g><g transform="translate(0 -779)"><path class="j" d="M1129.905,1270.763a59.356,59.356,0,0,1-11.468-3.079,59.329,59.329,0,0,1,11.468,3.079Z"/></g><g transform="translate(0 -779)"><path class="j" d="M1120.676,1317.212a49.384,49.384,0,0,1,.636-10.806,49.375,49.375,0,0,1-.636,10.806Z"/></g><g transform="translate(0 -779)"><path class="j" d="M1128.657,1333.122c-.168-.079,1.033-2.45,1.444-5.638.446-3.184-.086-5.788.1-5.819a13.74,13.74,0,0,1-1.541,11.457Z"/></g><g transform="translate(0 -779)"><path class="j" d="M1107.972,1329.607a17.706,17.706,0,0,1,2.2-11.449c.165.074-.889,2.489-1.484,5.651C1108.068,1326.965,1108.153,1329.6,1107.972,1329.607Z"/></g><g transform="translate(0 -779)"><path class="j" d="M1089.108,1337.667c-.116.125-2.43-1.849-5.369-4.17s-5.388-4.126-5.293-4.267a43.577,43.577,0,0,1,10.662,8.437Z"/></g><g transform="translate(0 -779)"><path class="j" d="M1101.887,1315.235a101.217,101.217,0,0,1-13.69,7.266,100.635,100.635,0,0,1,13.69-7.266Z"/></g><g transform="translate(0 -779)"><path class="e" d="M1141.57,1365.576a3.716,3.716,0,0,1-.74.188c-.492.091-1.21.277-2.153.4a46.078,46.078,0,0,1-8.038.514,49.45,49.45,0,0,1-43.055-26.888,46.055,46.055,0,0,1-3.065-7.447c-.305-.9-.453-1.628-.587-2.109a.383.383,0,1,1,.116-.033c.17.47.354,1.183.691,2.069a51.653,51.653,0,0,0,3.218,7.325,51.017,51.017,0,0,0,6.734,9.732,48.962,48.962,0,0,0,24.261,15.15,51.033,51.033,0,0,0,11.7,1.781,51.824,51.824,0,0,0,7.995-.324c.943-.086,1.665-.234,2.162-.287A3.575,3.575,0,0,1,1141.57,1365.576Z"/></g><g transform="translate(0 -779)"><path class="j" d="M1107.409,1359.66a10.576,10.576,0,0,1,3.685-9.832c.139.122-1.579,1.873-2.592,4.635C1107.451,1357.21,1107.595,1359.659,1107.409,1359.66Z"/></g><g transform="translate(0 -779)"><path class="j" d="M1097.993,1355.726c.085.16-1.632,1-2.975,2.828-1.375,1.807-1.693,3.69-1.871,3.654a5.763,5.763,0,0,1,1.394-4.011C1096,1356.225,1097.967,1355.575,1097.993,1355.726Z"/></g><g transform="translate(0 -779)"><path class="j" d="M1134.18,1377.265a11.717,11.717,0,0,1-9.142-5.7c.144-.117,1.633,1.884,4.192,3.458C1131.769,1376.628,1134.221,1377.084,1134.18,1377.265Z"/></g><g transform="translate(0 -779)"><path class="j" d="M1139.811,1345.59a8.992,8.992,0,0,1-6.215,7.318c-.084-.164,1.983-1.076,3.713-3.145C1139.07,1347.721,1139.636,1345.534,1139.811,1345.59Z"/></g><g transform="translate(0 -779)"><path class="j" d="M1155.806,1369.208c-.137-.114,1.374-2.024,2.762-4.657,1.407-2.626,2.144-4.946,2.315-4.9a17.658,17.658,0,0,1-5.077,9.554Z"/></g><g transform="translate(0 -779)"><path class="j" d="M1176.947,1372.327c.067.169-2.016.994-4.109,2.719-2.112,1.7-3.34,3.576-3.491,3.476a11.625,11.625,0,0,1,7.6-6.195Z"/></g><g transform="translate(0 -779)"><path class="j" d="M1160.823,1345.242c-.177.056-1.172-3.287-3.277-6.992-2.079-3.722-4.422-6.305-4.282-6.428a7.175,7.175,0,0,1,1.638,1.6,28.8,28.8,0,0,1,5.4,9.588A7.139,7.139,0,0,1,1160.823,1345.242Z"/></g><g transform="translate(0 -779)"><path class="j" d="M1163.987,1311.193a53.5,53.5,0,0,1-10.979,2.534,53.491,53.491,0,0,1,10.979-2.534Z"/></g><g transform="translate(0 -779)"><path class="j" d="M1154.255,1301.017a47.668,47.668,0,0,1-6.53-8.4,47.776,47.776,0,0,1,6.53,8.4Z"/></g><g transform="translate(0 -779)"><path class="j" d="M1178.355,1294.91a26.569,26.569,0,0,1-10.7-2.533c.058-.162,2.41.554,5.354,1.246S1178.376,1294.74,1178.355,1294.91Z"/></g><g transform="translate(0 -779)"><path class="j" d="M1195.495,1294.612c-.153-.079.793-2.145,1.749-4.766s1.579-4.806,1.747-4.768a21.9,21.9,0,0,1-3.5,9.534Z"/></g><g transform="translate(0 -779)"><path class="j" d="M1191.639,1317.843a17.178,17.178,0,0,1-9.113-5.422c.12-.131,1.919,1.436,4.432,2.92C1189.461,1316.841,1191.7,1317.675,1191.639,1317.843Z"/></g><g transform="translate(0 -779)"><path class="j" d="M1202.784,1317.136a80.16,80.16,0,0,1,3.092-13.449,80.16,80.16,0,0,1-3.092,13.449Z"/></g><g transform="translate(0 -779)"><path class="j" d="M1193.477,1343.109a70.051,70.051,0,0,1-7.606-10.413,69.866,69.866,0,0,1,7.606,10.413Z"/></g><g transform="translate(0 -779)"><path class="j" d="M1209.358,1333.18c-.159.074-1.2-1.992-2.849-4.3s-3.235-3.989-3.112-4.115a17.944,17.944,0,0,1,5.961,8.415Z"/></g><g transform="translate(0 -779)"><path class="j" d="M1224.242,1330.945c-.147.089-1.642-2.154-3.66-4.785s-3.784-4.668-3.659-4.787a30.814,30.814,0,0,1,7.319,9.572Z"/></g><g transform="translate(0 -779)"><path class="j" d="M1220.745,1340.809a8.446,8.446,0,0,0-4.413-6.687c.02-.067.52-.007,1.241.356a6.352,6.352,0,0,1,3.332,5.05C1220.956,1340.333,1220.814,1340.817,1220.745,1340.809Z"/></g><g transform="translate(0 -779)"><path class="j" d="M1209.134,1354.336c-.086-.023-.059-.305-.149-.71a2.121,2.121,0,0,0-2.247-1.753c-.414.012-.681.106-.725.028-.041-.06.171-.308.66-.444a2.179,2.179,0,0,1,2.731,2.131C1209.391,1354.1,1209.2,1354.361,1209.134,1354.336Z"/></g><g transform="translate(0 -779)"><path class="j" d="M1090.175,1375.96a16.416,16.416,0,0,1-9.424-9.423c.166-.091,1.493,2.677,4.134,5.29C1087.5,1374.467,1090.265,1375.794,1090.175,1375.96Z"/></g><g transform="translate(0 -779)"><path class="g" d="M1017.39,1092.159c-1.834-17.387-5.162-33.747-6.065-50.805a3.106,3.106,0,0,0-.811-2.353c-.91-.729-2.367-.143-2.962.859a6.521,6.521,0,0,0-.578,3.4,78.79,78.79,0,0,1-4.532,26.617c-1.966,5.536-4.556,10.862-6.04,16.546s1.288,7.613,3.845,12.9"/></g><g transform="translate(0 -779)"><path class="e" d="M959,1023.285c-.106.126-6.537-5.106-14.362-11.685s-14.086-12.015-13.981-12.141,6.536,5.105,14.364,11.685S959.106,1023.159,959,1023.285Z"/><path class="e" d="M991.607,1015.452c-.164.009-.81-10.155-1.443-22.7s-1.014-22.722-.849-22.73.81,10.153,1.443,22.7S991.772,1015.444,991.607,1015.452Z"/><path class="e" d="M970.84,1008.188c-.156.05-2.162-5.749-4.478-12.952s-4.068-13.085-3.911-13.135,2.161,5.748,4.478,12.953S971,1008.137,970.84,1008.188Z"/><path class="e" d="M952.332,1034c-.069.15-4.019-1.515-8.822-3.717s-8.644-4.11-8.575-4.26a153.9,153.9,0,0,1,17.4,7.977Z"/><path class="e" d="M922.244,1020.87c-.02.163-.971.178-2.124.034s-2.072-.393-2.052-.556.972-.179,2.125-.035S922.265,1020.707,922.244,1020.87Z"/><path class="e" d="M963.191,974.723c-.165,0-.3-.935-.3-2.088s.133-2.088.3-2.088.3.935.3,2.088S963.355,974.723,963.191,974.723Z"/><path class="e" d="M1032.051,990.867c.122.111-5.152,6.162-11.778,13.515s-12.1,13.227-12.222,13.117,5.151-6.16,11.78-13.516S1031.929,990.757,1032.051,990.867Z"/><path class="e" d="M1040.444,982.553c.116.116-.491.911-1.355,1.776s-1.661,1.472-1.777,1.356.49-.912,1.355-1.777S1040.328,982.436,1040.444,982.553Z"/><path class="e" d="M1060.823,1011.826a10.582,10.582,0,0,1-1.554.924c-1.016.563-2.506,1.344-4.363,2.278-3.711,1.872-8.911,4.318-14.77,6.75s-11.268,4.384-15.214,5.688c-1.973.654-3.578,1.157-4.7,1.479a10.486,10.486,0,0,1-1.751.447,10.5,10.5,0,0,1,1.679-.667l4.629-1.657c3.9-1.4,9.274-3.415,15.124-5.84s11.061-4.806,14.814-6.578l4.442-2.107A10.461,10.461,0,0,1,1060.823,1011.826Z"/><path class="e" d="M1044.1,1039.971a15,15,0,0,1-3.033,1c-1.9.522-4.558,1.142-7.526,1.65s-5.682.8-7.649.94a14.986,14.986,0,0,1-3.193.06,19.451,19.451,0,0,1,3.152-.479c1.949-.244,4.637-.6,7.59-1.108s5.606-1.056,7.526-1.472A19.51,19.51,0,0,1,1044.1,1039.971Z"/><path class="e" d="M1059.3,1037.159a18.351,18.351,0,0,1-6.587,0,18.343,18.343,0,0,1,6.587,0Z"/></g><g transform="translate(0 -779)"><path class="g" d="M1000.247,1099.328a15.9,15.9,0,0,1-6.038-15.053c.577-3.429,2.275-6.547,3.63-9.749s2.394-6.751,1.567-10.129a16.986,16.986,0,0,1-.909-3.872c-.007-1.331.849-2.818,2.178-2.879a3.283,3.283,0,0,1,2.485,1.5c2.221,2.756,4.015,10.814,2.891,16.818"/></g><g transform="translate(0 -779)"><path class="h" d="M1006.051,1075.965c-.058-.01.116-.924.184-2.592a31.258,31.258,0,0,0-.587-7.021,24.988,24.988,0,0,0-1.367-4.652,9.943,9.943,0,0,0-1.279-2.325,3.3,3.3,0,0,0-2.146-1.453,2.054,2.054,0,0,0-1.908,1.6,4.822,4.822,0,0,0,.188,2.943,15.754,15.754,0,0,1,.8,3.24,12.929,12.929,0,0,1-.126,3.454c-.8,4.637-3.273,8.393-4.522,12.1a16.289,16.289,0,0,0-1.022,5.421,15.943,15.943,0,0,0,.705,4.761,16.231,16.231,0,0,0,3.435,6.065c1.122,1.231,1.887,1.771,1.846,1.821a2.944,2.944,0,0,1-.562-.376,11.518,11.518,0,0,1-1.453-1.286,15.769,15.769,0,0,1-3.667-6.1,16.1,16.1,0,0,1-.8-4.89,16.628,16.628,0,0,1,1-5.6c1.258-3.8,3.7-7.55,4.453-12.018a12.351,12.351,0,0,0,.125-3.3,15.469,15.469,0,0,0-.765-3.138,5.353,5.353,0,0,1-.168-3.289,3.236,3.236,0,0,1,.9-1.4,2.18,2.18,0,0,1,1.578-.564,3.769,3.769,0,0,1,2.525,1.678,10.265,10.265,0,0,1,1.325,2.46,24.666,24.666,0,0,1,1.323,4.762,28.7,28.7,0,0,1,.406,7.112,16.284,16.284,0,0,1-.254,1.922A2.911,2.911,0,0,1,1006.051,1075.965Z"/></g><g transform="translate(0 -779)"><path class="e" d="M1155.54,1168.833a7.907,7.907,0,0,0,7.063,6.1,9.918,9.918,0,0,0,8.611-4.23,13.4,13.4,0,0,0,2.135-9.56c-.657-4.814-3.856-9.442-8.5-10.879s-10.417,1.121-11.7,5.807l-5.351,7.473Z"/></g><g transform="translate(0 -779)"><path class="g" d="M1149.213,1154.159a31.138,31.138,0,0,0-27.983-34.87c-16.6-1.582-31.35,10.777-33.838,27.264-2.181,14.453-4.055,29.042-3.988,34.341.2,15.978,9.552,22.2,13.342,24.066a20.719,20.719,0,0,0,4.205,1.047h0a.105.105,0,0,1,.089.124l-3.548,18.342c-1.609,12.018,5.1,22.736,17.1,24.485,12.039,1.755,21.449-7.476,23.286-19.5Z"/><path class="e" d="M1090.146,1155.9c.264.373,2.374-.759,5.078-.357,2.706.362,4.489,2.043,4.83,1.754.166-.125-.066-.763-.838-1.518a6.962,6.962,0,0,0-3.808-1.81,6.689,6.689,0,0,0-4.1.693C1090.382,1155.177,1090.015,1155.729,1090.146,1155.9Z"/><path class="e" d="M1114.211,1161.111c.264.374,2.376-.758,5.078-.356,2.706.362,4.488,2.042,4.83,1.754.165-.126-.063-.763-.839-1.519a6.972,6.972,0,0,0-3.807-1.81,6.7,6.7,0,0,0-4.1.693C1114.449,1160.391,1114.079,1160.942,1114.211,1161.111Z"/><path class="e" d="M1104.852,1173.9c.035-.152-1.6-.688-4.278-1.433-.68-.172-1.314-.405-1.361-.893a3.551,3.551,0,0,1,.759-1.98l2.809-4.961c3.928-7.075,6.879-12.933,6.593-13.088s-3.7,5.452-7.631,12.526q-1.427,2.62-2.727,5.006a4.04,4.04,0,0,0-.754,2.658,1.754,1.754,0,0,0,.989,1.176,4.738,4.738,0,0,0,1.149.333C1103.12,1173.788,1104.819,1174.048,1104.852,1173.9Z"/><path class="h" d="M1101.061,1206.022s10.318,2.38,24.525-3.567c0,0-6.133,13.2-25.481,8.51Z"/><path class="h" d="M1105.046,1180.581a4.924,4.924,0,0,1,4.632-1.173,4.492,4.492,0,0,1,2.833,2.1,2.849,2.849,0,0,1-.256,3.255,3.306,3.306,0,0,1-3.677.38,10.345,10.345,0,0,1-3.155-2.567,3.03,3.03,0,0,1-.657-.913.914.914,0,0,1,.151-1.006"/><path class="e" d="M1112.539,1176.927c-.436-.089-.87,2.845-3.687,4.563s-5.894.939-5.977,1.346c-.068.178.614.672,1.929.9a7.4,7.4,0,0,0,4.966-.958,6.433,6.433,0,0,0,2.9-3.854C1112.964,1177.714,1112.743,1176.939,1112.539,1176.927Z"/><path class="e" d="M1116.074,1152.31c.159.774,2.911.82,6.028,1.665,3.135.782,5.558,2.084,6.075,1.486.234-.288-.111-1.045-1.042-1.908a10.872,10.872,0,0,0-9.221-2.4C1116.681,1151.452,1116.01,1151.944,1116.074,1152.31Z"/><path class="e" d="M1092.879,1147.559c.386.684,2.342.318,4.587.615,2.256.217,4.078,1.016,4.608.437.237-.284.028-.943-.716-1.646a6.7,6.7,0,0,0-7.409-.847C1093.065,1146.634,1092.713,1147.229,1092.879,1147.559Z"/><path class="e" d="M1084.255,1142.972c3.307,5.047,13.8,1.93,20.14-1.537a15.073,15.073,0,0,0,20.576-4.26c3.625,4.618,10.991,3.092,13.677-2.113s1.174-12.368-2.515-16.921-9.086-6.853-14.414-7.837c-12.632-2.334-26.393,2.564-33.952,13.987-3.487,5.271-5.58,12.368-3.512,18.681"/><path class="k" d="M1119.177,1112.108c-.013.221-2.985-.35-7.665.43a27.912,27.912,0,0,0-15.878,8.542,34.673,34.673,0,0,0-7.628,16.529c-.788,4.684-.186,7.642-.391,7.661a6.884,6.884,0,0,1-.431-2.051,24.381,24.381,0,0,1,.092-5.718,33.317,33.317,0,0,1,7.577-17.114,27.344,27.344,0,0,1,16.549-8.579,23.82,23.82,0,0,1,5.718-.095A6.68,6.68,0,0,1,1119.177,1112.108Z"/><path class="k" d="M1102.095,1135.593a5.2,5.2,0,0,1-.252-1.8,18.077,18.077,0,0,1,.514-4.932,20.289,20.289,0,0,1,25.479-15.007,18.063,18.063,0,0,1,4.563,1.941,5.164,5.164,0,0,1,1.45,1.093c-.1.189-2.215-1.384-6.195-2.319a20.256,20.256,0,0,0-24.583,14.48C1101.959,1132.984,1102.311,1135.595,1102.095,1135.593Z"/></g><g transform="translate(0 -779)"><path class="e" d="M1132.412,1130.118c-1.062,4.5-2.129,9.055-2.132,13.681s1.158,9.4,4.11,12.964c4.415,5.325,11.776,6.94,18.571,8.233a53.659,53.659,0,0,0,3.165-28.626c-.772-4.684-2.28-9.451-5.583-12.86a15.537,15.537,0,0,0-18.86-2.251"/></g><g transform="translate(0 -779)"><path class="e" d="M1136.188,1152.258c-1.792,3.864-1.658,8.338-1.039,12.552s1.688,8.395,1.647,12.654-1.4,8.767-4.735,11.411a19.66,19.66,0,0,0-2.839,2.255,2.947,2.947,0,0,0-.59,3.34c.636,1.031,2.563,1.009,2.843-.17l-.174.3a1.889,1.889,0,0,0,1.6,2.853,8.592,8.592,0,0,0,6.1-3c2.185-2.528,3.051-5.919,3.625-9.21,1.761-10.1,1.418-20.56,4.206-30.423"/></g><g transform="translate(0 -779)"><path class="f" d="M1097.414,1218.563a24.595,24.595,0,0,0,32.852,17.458c5.919-2.291,10.694-6.749,15.31-11.1a35.878,35.878,0,0,1-33.249,41.692c-7.574.453-15.721-1.861-20.484-7.767-3.324-4.122-4.671-9.576-4.618-14.871s1.4-10.49,2.99-15.542c1.357-4.323,3.489-9.171,7.862-10.354"/></g><g transform="translate(0 -779)"><path class="e" d="M1151.659,1165.362c4.527,2.463,7.016,7.6,7.895,12.681s.439,10.281.653,15.43,1.2,10.526,4.456,14.524c3.456,4.246,8.862,6.257,13.681,8.855,10.66,5.748,19.424,15.478,22.636,27.155s.3,25.184-8.449,33.559c-7.961,7.622-19.549,10.3-30.57,10.273-7.862-.022-16.494-1.692-21.4-7.838-4.843-6.07-4.625-14.75-2.855-22.311s4.858-14.926,4.978-22.691a40.256,40.256,0,0,1-6.036,13.42c-.805,1.159-2.188,2.408-3.433,1.744-1.381-.736-.856-2.8-.214-4.231,9.474-21.076,6.175-63.551,11.788-86.82"/><path class="g" d="M1143.858,1162.956c.285-.091,11.337-2.185,9.918,8.746s-12.1,7.251-12.079,6.935S1143.858,1162.956,1143.858,1162.956Z"/><path class="h" d="M1145.574,1174.929c.053-.028.173.158.476.348a1.921,1.921,0,0,0,1.419.214c1.21-.274,2.421-1.981,2.729-3.944a6.338,6.338,0,0,0-.179-2.8,2.215,2.215,0,0,0-1.242-1.647.979.979,0,0,0-1.192.376c-.186.286-.145.513-.2.525-.034.023-.211-.214-.064-.654a1.223,1.223,0,0,1,.518-.629,1.45,1.45,0,0,1,1.09-.141,2.7,2.7,0,0,1,1.769,1.953,6.513,6.513,0,0,1,.264,3.132c-.356,2.193-1.751,4.108-3.39,4.359a2.056,2.056,0,0,1-1.7-.515C1145.559,1175.2,1145.534,1174.944,1145.574,1174.929Z"/></g><g transform="translate(0 -779)"><path class="e" d="M1086.109,1242.128a28.269,28.269,0,0,1,1.858-3.379,45.9,45.9,0,0,0,3.945-8.337,20.578,20.578,0,0,0,.987-9.049,33.228,33.228,0,0,0-.876-3.717,3.017,3.017,0,0,1,.5.918,12.549,12.549,0,0,1,.8,2.734,19.3,19.3,0,0,1-.837,9.3,38.368,38.368,0,0,1-4.15,8.369c-.641,1.007-1.183,1.806-1.568,2.35S1086.144,1242.15,1086.109,1242.128Z"/></g><g transform="translate(0 -779)"><path class="j" d="M1091.686,1229.508c-.165.039-.476-.932-1.454-1.59-.957-.69-1.975-.646-1.995-.814-.012-.073.242-.2.692-.21a2.987,2.987,0,0,1,2.714,1.892C1091.791,1229.211,1091.759,1229.494,1091.686,1229.508Z"/></g><g transform="translate(0 -779)"><path class="j" d="M1098.744,1229.493a19.922,19.922,0,0,0-2.814-2.641c-1.77-1.189-3.559-1.364-3.536-1.543-.03-.151,1.934-.241,3.864,1.046C1098.2,1227.62,1098.9,1229.46,1098.744,1229.493Z"/></g><g transform="translate(0 -779)"><path class="j" d="M1103.189,1252.692a37.3,37.3,0,0,1,1.9-9.218,37.394,37.394,0,0,1-1.9,9.218Z"/></g><g transform="translate(0 -779)"><path class="j" d="M1121.027,1256.191a40.969,40.969,0,0,1,.307-9.853,40.952,40.952,0,0,1-.307,9.853Z"/></g><path class="l" d="M756.822,1307l-17.63,76.788,37.288.114,17.227-67.525Z" transform="translate(0 -779)"/><g transform="translate(0 -779)"><path class="e" d="M939.941,1212.672c-3.544-4.753-7.617-9.315-9.485-14.942-.9-2.718-1.256-5.6-2.217-8.3s-2.708-5.328-5.385-6.345-4.708.014-6.452,1.916l-12.795,37.426,7.378,28.75c7.358-1.661,16.583-3.624,23.46-6.725s11.484-8.061,11.913-15.592C946.7,1222.944,943.484,1217.426,939.941,1212.672Z"/></g><g transform="translate(0 -779)"><path class="f" d="M823.5,1206.055s-44.482,19.364-50.041,28.1-23.822,71.017-23.822,71.017l46.829,13.78-.771,64.836H910.611l-.949-114.312-14.416-63.19s-25.373-1.634-27.722-2.791S823.5,1206.055,823.5,1206.055Z"/></g><g transform="translate(0 -779)"><path class="l" d="M981.565,1047.557c.368-2.623-1.467-5.5-.15-7.8.728-1.269,2.2-1.882,3.563-2.408a5.672,5.672,0,0,1,2.188-.523,1.934,1.934,0,0,1,1.8,1.143,2.433,2.433,0,0,1-.875,2.359,6.742,6.742,0,0,0-1.727,1.992c-.448,1.1-.037,4.535.419,5.629.782,1.878,3.54,10.217,3.781,12.236"/></g><g transform="translate(0 -779)"><path class="l" d="M972.179,1048.463c.163-3.969,3.382-19.606,3.545-23.575,2.683.827,4.24,3.686,4.746,6.449s.244,5.619.722,8.386c.642,3.716,2.573,7.067,4.52,10.295s3.976,6.5,4.851,10.166,4.2,13.169,1.613,15.916"/></g><g transform="translate(0 -779)"><path class="l" d="M971.433,1075.219l-15.9,75.56c-.56,3.413-60.288,55.506-60.288,55.506l11.8,47.124,77.814-76.076a31.6,31.6,0,0,0,8.509-22.165l-1.319-70.9Z"/></g><g transform="translate(0 -779)"><path class="l" d="M968.718,1048.94l2.715,26.279,20.613,9.052s.252-1.867,1.138-10.971c.978-10.048-9.822-14.359-14.632-21.772-2.059-3.174-1.52-9.007-3.11-16.233-.183-.832-1.332-5.882-1.95-8.6a6.053,6.053,0,0,0-2.47-3.714c-.928-.624-1.984-.934-2.756,0C967.478,1023.93,968.718,1048.94,968.718,1048.94Z"/></g><g transform="translate(0 -779)"><path class="l" d="M981.567,1079.628c2.342-1.979,2.842-5.524,1.976-8.465s-2.848-5.41-4.858-7.726-4.127-4.621-5.364-7.427c-.871-1.976-1.274-4.14-2.234-6.074s-2.708-3.705-4.865-3.791c1.723,10.873,1.682,17.13,5.211,29.074"/></g><g transform="translate(0 -779)"><path class="m" d="M968.321,1058.524c.006.041-.082-.3-.212-.872l-.552-2.49c-.482-2.273-1.1-5.21-1.813-8.555l-.068-.32.333-.026a5.381,5.381,0,0,1,3.843,1.438,11.656,11.656,0,0,1,3.219,5.505,28.9,28.9,0,0,0,1.809,4.772,14.714,14.714,0,0,0,2.011,2.773,4.038,4.038,0,0,1,.685,1.085,7.614,7.614,0,0,1-.863-.936,12.582,12.582,0,0,1-2.2-2.719,26.213,26.213,0,0,1-1.96-4.8,11.425,11.425,0,0,0-3.088-5.232,4.855,4.855,0,0,0-3.419-1.313l.264-.345C967.673,1053.379,968.57,1058.533,968.321,1058.524Z"/></g><g transform="translate(0 -779)"><path class="m" d="M977.564,1051.837c-.163.025-1.013-4.779-1.9-10.728a100.3,100.3,0,0,1-1.309-10.818c.163-.024,1.013,4.779,1.9,10.73A100.225,100.225,0,0,1,977.564,1051.837Z"/></g><g transform="translate(0 -779)"><path class="m" d="M984.12,1052.719c.032,0,.081.125.151.4l-.177.037a60.307,60.307,0,0,1-2.075-7.475c-.492-2.206-.853-4.222-1.066-5.687a9.188,9.188,0,0,1-.208-2.394c.169-.027.871,3.558,1.855,7.951.787,3.551,1.515,6.547,1.669,7.557l-.177.037C984.079,1052.862,984.089,1052.724,984.12,1052.719Z"/></g><g transform="translate(0 -779)"><path class="m" d="M988.174,1067.208c-.085.05-.5-.593-1.327-1.475a12.843,12.843,0,0,0-8.288-4,14.635,14.635,0,0,1-1.981-.121,4.441,4.441,0,0,1,2-.3,11.234,11.234,0,0,1,8.588,4.143A4.44,4.44,0,0,1,988.174,1067.208Z"/></g><g transform="translate(0 -779)"><path class="m" d="M973.3,1077.292a15.937,15.937,0,0,1-1.354-3.109,70.26,70.26,0,0,1-3.8-15.893,16,16,0,0,1-.2-3.386,23.751,23.751,0,0,1,.617,3.327c.34,2.056.861,4.887,1.6,7.978s1.557,5.849,2.184,7.837A23.914,23.914,0,0,1,973.3,1077.292Z"/></g><g transform="translate(0 -779)"><path class="f" d="M881.292,1207.625a7.251,7.251,0,0,1,9.74-2.277c8.394-6.826,16.976-13.518,25.37-20.344-2.739,13.683-4.544,32.86,1.565,45.405,0,0,7.739,14.391,20.065,12.189l-10.989,10.811-17.381,16.066"/></g><g transform="translate(0 -779)"><path class="e" d="M878.565,1214.051a11.261,11.261,0,0,1,5.455-8.972c.117.142-1.823,1.609-3.329,4.121C879.155,1211.691,878.745,1214.089,878.565,1214.051Z"/></g><g transform="translate(0 -779)"><path class="e" d="M887.63,1222.458a7.2,7.2,0,0,1-.955-2.5,16.078,16.078,0,0,1,2.211-12.474,7.192,7.192,0,0,1,1.756-2.019c.078.068-.583.842-1.4,2.242a17.959,17.959,0,0,0-2.156,12.165C887.372,1221.466,887.726,1222.421,887.63,1222.458Z"/></g><g transform="translate(0 -779)"><path class="j" d="M929.648,1251.882a9.214,9.214,0,0,1-2.737,1.1,15.109,15.109,0,0,1-8.01-.241,19.174,19.174,0,0,1-9.631-6.905,32.359,32.359,0,0,1-5.743-13.39,100.744,100.744,0,0,1-1.37-26.429c.265-3.383.646-6.1.955-7.974.149-.937.292-1.659.392-2.148a3.627,3.627,0,0,1,.183-.74,3.725,3.725,0,0,1-.065.76c-.072.555-.165,1.272-.28,2.161-.239,1.877-.554,4.6-.765,7.971a106.272,106.272,0,0,0,1.533,26.276,32.252,32.252,0,0,0,5.6,13.178,18.949,18.949,0,0,0,9.318,6.837,15.357,15.357,0,0,0,7.835.419A24.41,24.41,0,0,0,929.648,1251.882Z"/></g><g transform="translate(0 -779)"><path class="e" d="M796.712,1338.192c-.165,0-.3-16.254-.3-36.3s.133-36.3.3-36.3.3,16.251.3,36.3S796.876,1338.192,796.712,1338.192Z"/></g><g transform="translate(0 -779)"><path class="e" d="M795.789,1253.048c-.123,0-.088-1.626-.648-4.154a23.215,23.215,0,0,0-1.427-4.3,23.816,23.816,0,0,0-6.674-8.742,23.161,23.161,0,0,0-3.77-2.509c-2.291-1.207-3.872-1.6-3.836-1.72a4.17,4.17,0,0,1,1.117.234,8.522,8.522,0,0,1,1.274.414,14.174,14.174,0,0,1,1.635.7,21.167,21.167,0,0,1,3.924,2.458,22.807,22.807,0,0,1,6.833,8.949,21.2,21.2,0,0,1,1.336,4.433,14.3,14.3,0,0,1,.241,1.761,8.391,8.391,0,0,1,.063,1.338A4.2,4.2,0,0,1,795.789,1253.048Z"/></g><g transform="translate(0 -779)"><path class="e" d="M874.112,1205.562a5.83,5.83,0,0,1,.189.962,22.488,22.488,0,0,1,.3,2.8,29.19,29.19,0,0,1-1.428,10.236,29.965,29.965,0,0,1-8.286,12.83,29.5,29.5,0,0,1-35.222,2.64,29.97,29.97,0,0,1-10.106-11.453,29.192,29.192,0,0,1-2.937-9.908,22.341,22.341,0,0,1-.124-2.813,5.9,5.9,0,0,1,.043-.98,6.244,6.244,0,0,1,.077.978c.006.641.092,1.581.234,2.788a30.173,30.173,0,0,0,3.082,9.744,29.872,29.872,0,0,0,10.032,11.185,29.141,29.141,0,0,0,34.555-2.59,29.883,29.883,0,0,0,8.253-12.554,30.215,30.215,0,0,0,1.6-10.095c-.039-1.215-.1-2.157-.184-2.793A6.185,6.185,0,0,1,874.112,1205.562Z"/></g><g transform="translate(0 -779)"><path class="j" d="M795.724,1304.761c-.052.156-9.5-2.824-21.091-6.656s-20.958-7.065-20.906-7.221,9.493,2.824,21.093,6.656S795.776,1304.6,795.724,1304.761Z"/></g><g transform="translate(0 -779)"><path class="j" d="M908.551,1288.894c0,.164-25.217.4-56.319.534s-56.326.1-56.327-.061,25.212-.4,56.325-.535S908.55,1288.729,908.551,1288.894Z"/></g><g transform="translate(0 -779)"><path class="j" d="M909.121,1298.847c0,.164-25.346.3-56.6.3s-56.61-.133-56.61-.3,25.34-.3,56.61-.3S909.121,1298.682,909.121,1298.847Z"/></g><g transform="translate(0 -779)"><path class="e" d="M893.595,1310.949a5.921,5.921,0,0,1-.32.923q-.38.969-1.025,2.608l-.755,1.881c-.294.68-.652,1.4-1.016,2.185-.753,1.557-1.533,3.37-2.619,5.26q-.783,1.437-1.637,3c-.576,1.04-1.263,2.071-1.927,3.167-1.3,2.211-2.905,4.429-4.552,6.794a112.686,112.686,0,0,1-26.655,26.138c-2.4,1.6-4.646,3.164-6.883,4.419-1.108.642-2.152,1.308-3.2,1.863l-3.033,1.579c-1.911,1.048-3.739,1.793-5.31,2.515-.792.349-1.52.693-2.205.973l-1.895.718-2.627.974a5.919,5.919,0,0,1-.93.3,6.13,6.13,0,0,1,.888-.414l2.583-1.076,1.87-.764c.677-.3,1.4-.653,2.179-1.016,1.553-.748,3.362-1.517,5.254-2.585q1.435-.77,3-1.606c1.041-.564,2.075-1.237,3.173-1.886,2.216-1.267,4.445-2.839,6.821-4.443a115.619,115.619,0,0,0,26.529-26.014c1.65-2.345,3.265-4.542,4.576-6.733.67-1.085,1.364-2.1,1.947-3.135s1.134-2.024,1.665-2.971c1.1-1.87,1.909-3.664,2.688-5.2.378-.775.75-1.487,1.058-2.158l.8-1.855q.708-1.611,1.127-2.562A5.994,5.994,0,0,1,893.595,1310.949Z"/></g><g transform="translate(0 -779)"><path class="n" d="M888.948,1320.894c-7.684,9.351-15.732,16.139-27.022,20.5-5.4,2.088-11.068,3.513-16.305,5.99s-10.167,6.222-12.517,11.517c-1.817,4.093-.934,10.255,3.447,11.18a9.243,9.243,0,0,0,4.972-.764c22.353-8.1,37.042-28.543,47.425-48.424"/></g><g transform="translate(0 -779)"><path class="e" d="M808.993,1117.407c-4.825,3.788-5.15,10.864-4.91,16.994s.312,13.1-4.129,17.333c-3.661,3.487-10.063,4.783-11.117,9.728a5.75,5.75,0,0,0,9.244,5.666c-1.552,3.87-.848,8.84,2.453,11.388s9.085,1.358,10.339-2.618a5.059,5.059,0,1,0,9.84,2.284"/></g><g transform="translate(0 -779)"><path class="e" d="M879.018,1161.789a6.09,6.09,0,1,0,11.444-4.148c-.95-2.371-3.379-4.167-3.5-6.719-.142-3.091,3.1-5.131,5.948-6.337s6.189-2.793,6.639-5.854c.434-2.955-2.109-5.393-4.239-7.486s-4.171-5.27-2.671-7.853c.767-1.321,2.265-2.031,3.267-3.184,2.217-2.554,1.328-6.835-1.232-9.046s-6.233-2.68-9.586-2.242-6.548,1.664-9.832,2.471a40.439,40.439,0,0,1-31.973-5.768"/></g><g transform="translate(0 -779)"><path class="l" d="M812.266,1140.984l11.772,68.2a21.947,21.947,0,0,0,25.488,17.871h0a21.953,21.953,0,0,0,18-23.558c-.538-6.046-1-11.054-1-11.054s17.084-4.388,15.607-21.751c-.713-8.391-3.59-25.555-6.372-41.052a32.459,32.459,0,0,0-35.1-26.55l-1.673.163A32.249,32.249,0,0,0,812.266,1140.984Z"/><path class="e" d="M872.112,1140.886a2.489,2.489,0,0,1-2.145,2.732,2.381,2.381,0,0,1-2.771-1.984,2.49,2.49,0,0,1,2.142-2.733A2.382,2.382,0,0,1,872.112,1140.886Z"/><path class="e" d="M872.862,1138.512c-.276.353-2.288-.853-4.952-.586-2.666.228-4.488,1.79-4.808,1.492-.157-.13.1-.744.89-1.447a6.832,6.832,0,0,1,3.811-1.594,6.554,6.554,0,0,1,3.98.869C872.664,1137.8,873,1138.353,872.862,1138.512Z"/><path class="e" d="M846.036,1143.93a2.488,2.488,0,0,1-2.144,2.732,2.381,2.381,0,0,1-2.771-1.984,2.49,2.49,0,0,1,2.142-2.733A2.381,2.381,0,0,1,846.036,1143.93Z"/><path class="e" d="M846.713,1141.563c-.276.353-2.29-.853-4.952-.586-2.665.229-4.488,1.79-4.809,1.492-.156-.131.1-.744.892-1.447a6.821,6.821,0,0,1,3.809-1.594,6.561,6.561,0,0,1,3.982.869C846.513,1140.847,846.849,1141.4,846.713,1141.563Z"/><path class="e" d="M858.312,1160.385c-.028-.15,1.6-.6,4.252-1.2.674-.137,1.3-.335,1.374-.81a3.474,3.474,0,0,0-.651-1.973q-1.2-2.378-2.517-4.986c-3.515-7.106-6.129-12.976-5.842-13.115s3.37,5.508,6.883,12.614q1.275,2.631,2.437,5.025a3.962,3.962,0,0,1,.613,2.637,1.717,1.717,0,0,1-1.022,1.1,4.673,4.673,0,0,1-1.14.273C860.011,1160.36,858.337,1160.535,858.312,1160.385Z"/><path class="e" d="M846.383,1131.051c-.192.75-2.887.666-5.976,1.348-3.1.62-5.537,1.781-6.015,1.171-.215-.293.158-1.017,1.109-1.818a10.647,10.647,0,0,1,9.135-1.919C845.829,1130.183,846.463,1130.7,846.383,1131.051Z"/><path class="e" d="M871.13,1130.894c-.41.651-2.307.2-4.518.388-2.217.108-4.037.8-4.529.213-.219-.289.016-.924.778-1.577a6.562,6.562,0,0,1,7.289-.484C870.991,1129.98,871.308,1130.579,871.13,1130.894Z"/><path class="e" d="M829.241,1120.132l-.087.084a13.706,13.706,0,0,0-4.211,9.316c-.005.125-.01.243-.014.355-.2,5.012.417,10.033.172,15.043s-1.467,10.2-4.787,13.963c-1.366,1.547-3.929,2.769-5.325,1.249a4.252,4.252,0,0,1-.838-2.206c-2.089-11.854-6.384-22.133-7.579-34.625a10.578,10.578,0,0,1,3.534-9c2.432-2.128,5.436-4.383,8.475-3.291s7.336,6.166,9.814,8.252"/><path class="l" d="M818.877,1148.261c-.308-.1-12.26-2.362-10.725,9.457s13.085,7.841,13.061,7.5S818.877,1148.261,818.877,1148.261Z"/><path class="m" d="M817.021,1161.208c-.057-.031-.187.171-.514.376a2.081,2.081,0,0,1-1.535.232c-1.308-.3-2.617-2.143-2.951-4.266a6.85,6.85,0,0,1,.194-3.022,2.4,2.4,0,0,1,1.343-1.782,1.058,1.058,0,0,1,1.289.407c.2.31.156.555.222.567.037.026.228-.23.069-.706a1.323,1.323,0,0,0-.561-.681,1.569,1.569,0,0,0-1.178-.153,2.92,2.92,0,0,0-1.913,2.112,7.039,7.039,0,0,0-.286,3.387c.385,2.372,1.894,4.443,3.666,4.715a2.223,2.223,0,0,0,1.843-.558C817.037,1161.5,817.065,1161.225,817.021,1161.208Z"/><path class="e" d="M818.359,1112.9c-3.381-4.458,3.953-12.05,9.625-14.465s13.659-.314,19.671,1.05c3.793.861,7.621,2.2,11.473,1.667a26.28,26.28,0,0,0,7.329-2.648,19.271,19.271,0,0,1,7.44-2.237c2.607-.075,5.408,1.042,6.625,3.349s.13,5.737-2.406,6.345c3.1-2.123,8.083-.216,8.978,3.438s-2.638,7.644-6.374,7.2c1.561-1.442,4.352.417,4.349,2.542s-1.762,3.844-3.617,4.883c-4.732,2.653-10.565,2.522-15.851,1.3s-10.293-3.444-15.547-4.8-14.075-3.845-18.993-1.553c-3.621,1.688-5.79,6.459-8,5.668a7.283,7.283,0,0,1-4.272-4.966,21.108,21.108,0,0,1-.425-6.773"/></g><g transform="translate(0 -779)"><path class="e" d="M819.023,1150.287c.341,6.266.688,12.572,2.15,18.673s4.116,12.054,8.515,16.528c5.765,5.863,13.221,11.484,21.334,12.819,8.861,1.458,19.7-.386,26.915-5.736,3.42-2.537,5.911-8.018,4.851-12.143a9.036,9.036,0,0,0,5.149-7.555c.175-3.2-1.772-7.2-4.306-7.628,1.906-.313,2.444-3.329,1.731-5.039-.743-1.783-3.227-2.217-5.124-1.852a13.145,13.145,0,0,0-5.108,2.628,18.273,18.273,0,0,1-4.955,2.951c-6.127,1.993-12.341-3.413-18.779-3.163-5.822.227-11,5.059-16.771,4.248a11.613,11.613,0,0,1-7.777-5.411c-1.778-2.728-1-12.826-1.7-16.006"/></g><g transform="translate(0 -779)"><g class="o"><path class="k" d="M865.736,1177.5a9.207,9.207,0,0,1-1.419-.426,7.574,7.574,0,0,0-6.606,1.2c-.728.527-1.113.952-1.18.9-.053-.038.227-.563.933-1.2a6.808,6.808,0,0,1,6.977-1.264C865.326,1177.054,865.773,1177.447,865.736,1177.5Z"/></g></g><g transform="translate(0 -779)"><path class="c" d="M853.219,1164.365c.431-.068.719,2.825,3.4,4.637s5.725,1.194,5.787,1.6c.058.177-.632.628-1.931.791a7.24,7.24,0,0,1-4.814-1.169,6.308,6.308,0,0,1-2.661-3.906C852.767,1165.116,853.02,1164.368,853.219,1164.365Z"/></g><g transform="translate(0 -779)"><path class="k" d="M844.619,1196.37a4.032,4.032,0,0,1,.746.276c.487.18,1.208.438,2.159.7a38.371,38.371,0,0,0,8.229,1.292,36.469,36.469,0,0,0,5.747-.116,31.369,31.369,0,0,0,6.456-1.26,25.908,25.908,0,0,0,6.588-3,19.881,19.881,0,0,0,5.7-5.191,11.786,11.786,0,0,0,2.259-8.569l-.042-.245.212-.091a9.142,9.142,0,0,0,3.573-2.945,10.034,10.034,0,0,0,1.151-1.919,6.817,6.817,0,0,0,.514-2.067,8.191,8.191,0,0,0-2.752-6.921l-.164-.137.134-.167a4.823,4.823,0,0,0,.7-4.7,4.553,4.553,0,0,0-2.632-2.577,5.046,5.046,0,0,0-2.383-.331c-.556.064-.839.166-.848.136a2.84,2.84,0,0,1,.831-.26,4.9,4.9,0,0,1,2.485.23,4.776,4.776,0,0,1,2.867,2.674,5.181,5.181,0,0,1-.685,5.106l-.03-.3a8.618,8.618,0,0,1,2.995,7.3,7.314,7.314,0,0,1-.54,2.235,10.563,10.563,0,0,1-1.2,2.037,9.654,9.654,0,0,1-3.795,3.145l.17-.335a12.274,12.274,0,0,1-2.335,9.049,20.293,20.293,0,0,1-5.879,5.341,26.154,26.154,0,0,1-6.74,3.036,31.254,31.254,0,0,1-6.571,1.227,38.315,38.315,0,0,1-14.086-1.446,18.192,18.192,0,0,1-2.14-.811A4.016,4.016,0,0,1,844.619,1196.37Z"/></g><g transform="translate(0 -779)"><path class="k" d="M792.784,1166.2a1.786,1.786,0,0,1-.6-.3,3.443,3.443,0,0,1-1.2-1.51,5.086,5.086,0,0,1-.238-3.048,6.149,6.149,0,0,1,2.274-3.342,15.189,15.189,0,0,1,4.341-2.257,27.968,27.968,0,0,0,5.055-2.148,9.9,9.9,0,0,0,3.811-4.481,16.3,16.3,0,0,0,1.345-6.289c.1-4.475-.939-8.711-1.053-12.663-.179-3.928.577-7.621,2.372-10.1a9.49,9.49,0,0,1,5.764-3.917,6.731,6.731,0,0,1,1.922-.1,2.83,2.83,0,0,1,.657.133,9.84,9.84,0,0,0-2.53.192,9.437,9.437,0,0,0-5.468,3.932c-1.675,2.4-2.374,5.97-2.169,9.831.137,3.88,1.194,8.112,1.1,12.7a16.744,16.744,0,0,1-1.41,6.515,10.414,10.414,0,0,1-4.055,4.707,27.805,27.805,0,0,1-5.174,2.145,15.029,15.029,0,0,0-4.248,2.122,5.85,5.85,0,0,0-2.211,3.091,4.927,4.927,0,0,0,.129,2.882A3.853,3.853,0,0,0,792.784,1166.2Z"/></g><g transform="translate(0 -779)"><path class="k" d="M878.505,1105.726a2.716,2.716,0,0,1,.522-.243,3.465,3.465,0,0,1,.669-.227,4.936,4.936,0,0,1,.954-.194,7.071,7.071,0,0,1,5.825,2.093v0l.007.008a9.46,9.46,0,0,1,1.767,7.087,11.654,11.654,0,0,1-4.689,7.743,17.993,17.993,0,0,1-9.94,3.453,39.815,39.815,0,0,1-11.547-1.27,52.37,52.37,0,0,1-16.752-7.418,53.05,53.05,0,0,0-6.869-4,18.947,18.947,0,0,0-6.631-1.692,19.931,19.931,0,0,0-9.727,1.808,34.566,34.566,0,0,0-3.2,1.814,13.788,13.788,0,0,1,3.1-2.023,19.669,19.669,0,0,1,9.854-2.02,19.208,19.208,0,0,1,6.806,1.662,52.371,52.371,0,0,1,6.964,3.988,52.6,52.6,0,0,0,16.6,7.3,39.7,39.7,0,0,0,11.369,1.272,17.542,17.542,0,0,0,9.658-3.295,11.231,11.231,0,0,0,4.566-7.386,9.141,9.141,0,0,0-1.6-6.817l.008.009a6.954,6.954,0,0,0-5.552-2.14A13.711,13.711,0,0,0,878.505,1105.726Z"/></g><g transform="translate(0 -779)"><path class="k" d="M872.446,1095.653a6.694,6.694,0,0,1-.539,2.618,11.088,11.088,0,0,1-4.886,5.334,13.909,13.909,0,0,1-4.77,1.713,19.927,19.927,0,0,1-5.809.023c-4.082-.506-8.3-2.115-12.742-3.5-4.425-1.383-8.9-2.2-12.833-1.355a16.879,16.879,0,0,0-9.02,5.255,17.544,17.544,0,0,0-3.654,6.132c-.529,1.621-.626,2.572-.7,2.56a3.008,3.008,0,0,1,.064-.688,13.448,13.448,0,0,1,.413-1.942,17.531,17.531,0,0,1,12.781-11.854c4.07-.908,8.667-.069,13.121,1.322,4.475,1.4,8.646,3,12.641,3.523a19.718,19.718,0,0,0,5.659.033,13.675,13.675,0,0,0,4.639-1.591,11.129,11.129,0,0,0,4.881-5.059A15.288,15.288,0,0,0,872.446,1095.653Z"/></g><g transform="translate(0 -779)"><path class="p" d="M973.364,1320.882a12.153,12.153,0,0,1,8.019,5.125,21.454,21.454,0,0,1,3.465,9.061c1.044,6.225-.64,13.293-2.949,19.167-6.346-2.977-9.728-10.373-11.208-14.232-2.339-6.1-2.862-18.545,2.673-19.121"/></g><g transform="translate(0 -779)"><path class="p" d="M991.255,1362.995a10.368,10.368,0,0,1-.245-10.408,13.769,13.769,0,0,1,8.445-6.473c1.622-.457,3.5-.622,4.875.346a4.437,4.437,0,0,1,1.61,4.2,8.99,8.99,0,0,1-2,4.221c-3.309,4.271-7.295,7.8-12.688,8.117"/></g><g transform="translate(0 -779)"><path class="e" d="M989.652,1382.712a4.747,4.747,0,0,1-.212-1.31c-.09-.846-.2-2.073-.28-3.593a44.51,44.51,0,0,1,.725-11.9,22.322,22.322,0,0,1,5.407-10.595,14.605,14.605,0,0,1,2.808-2.306,4.14,4.14,0,0,1,1.19-.6,31.15,31.15,0,0,0-3.631,3.243,23.409,23.409,0,0,0-5.084,10.409,51.6,51.6,0,0,0-.915,11.726A40.245,40.245,0,0,1,989.652,1382.712Z"/></g><g transform="translate(0 -779)"><path class="e" d="M974.841,1330.324a12.954,12.954,0,0,1,.8,2.036c.473,1.325,1.125,3.252,1.905,5.643,1.562,4.78,3.611,11.42,5.692,18.806s3.8,14.123,4.962,19.016c.582,2.446,1.032,4.431,1.32,5.808a13.105,13.105,0,0,1,.38,2.153,12.778,12.778,0,0,1-.648-2.088c-.4-1.478-.912-3.415-1.537-5.751-1.286-4.858-3.079-11.564-5.157-18.946s-4.051-14.034-5.489-18.849c-.687-2.319-1.256-4.241-1.69-5.708A12.8,12.8,0,0,1,974.841,1330.324Z"/></g><g transform="translate(0 -779)"><path class="p" d="M982.8,1368.914a24.255,24.255,0,0,0-17.334-13.809c-1.921-.368-4.291-.315-5.359,1.324s-.155,3.841,1,5.426a20.723,20.723,0,0,0,21.706,7.589"/></g><g transform="translate(0 -779)"><path class="e" d="M967.578,1360.635a4.322,4.322,0,0,1,1.264.128,10.249,10.249,0,0,1,1.458.31,17.3,17.3,0,0,1,1.893.568,25.492,25.492,0,0,1,4.667,2.176,27.281,27.281,0,0,1,9.009,8.722,25.418,25.418,0,0,1,2.325,4.6,16.761,16.761,0,0,1,.629,1.874,10.2,10.2,0,0,1,.357,1.446,4.435,4.435,0,0,1,.17,1.259c-.135.032-.482-1.744-1.618-4.39a28.485,28.485,0,0,0-2.409-4.427,28.813,28.813,0,0,0-8.8-8.523,28.512,28.512,0,0,0-4.5-2.263C969.337,1361.059,967.551,1360.77,967.578,1360.635Z"/></g><rect class="e" width="609" height="9" transform="translate(674 604)"/></g></svg>