<svg xmlns="http://www.w3.org/2000/svg" width="170.937" height="47.989" viewBox="0 0 170.937 47.989"><defs><style>.a,.c{fill:#fff;}.b{fill:#ff7e02;}.c{font-size:11.5px;font-family:CeraPro-Medium, Cera Pro;font-weight:500;}</style></defs><g transform="translate(-67 -4099.249)"><path class="a" d="M125.238,89.088a1.335,1.335,0,0,0,.968-.376,1.245,1.245,0,0,0,.388-.932,1.325,1.325,0,0,0-1.356-1.356h-1.719v-1.55a1.455,1.455,0,0,0-.412-1.054,1.363,1.363,0,0,0-1.017-.423,1.447,1.447,0,0,0-1.477,1.477v1.55H119.5a1.337,1.337,0,0,0-.968.376,1.246,1.246,0,0,0-.388.932,1.325,1.325,0,0,0,1.356,1.356h1.114v6.683q0,2.083,1.029,2.725a4.7,4.7,0,0,0,2.531.641,2.964,2.964,0,0,0,1.61-.448,1.294,1.294,0,0,0,.436-1.962.808.808,0,0,0-.618-.327,1.453,1.453,0,0,0-.557.121,2.058,2.058,0,0,1-.533.1,1.073,1.073,0,0,1-.726-.23.925.925,0,0,1-.266-.739V89.088Z" transform="translate(-29.745 4030.48)"/><path class="a" d="M178.459,95.414a1.392,1.392,0,0,0-1.041.424,1.452,1.452,0,0,0-.411,1.053v.024a5.736,5.736,0,0,0-1.719-1.078,5.616,5.616,0,0,0-2.179-.424,5.4,5.4,0,0,0-2.967.86,5.957,5.957,0,0,0-2.119,2.4,7.614,7.614,0,0,0-.774,3.475,7.437,7.437,0,0,0,.787,3.463,6.021,6.021,0,0,0,2.143,2.385,5.539,5.539,0,0,0,3.027.86,5.252,5.252,0,0,0,3.8-1.7,1.525,1.525,0,0,0,.424,1.042,1.371,1.371,0,0,0,1.029.411,1.393,1.393,0,0,0,1.042-.424,1.451,1.451,0,0,0,.411-1.054V96.891a1.442,1.442,0,0,0-.411-1.065A1.414,1.414,0,0,0,178.459,95.414Zm-2.325,9.626a3.233,3.233,0,0,1-2.567,1.15,3.2,3.2,0,0,1-2.555-1.15,4.754,4.754,0,0,1,.012-5.8,3.389,3.389,0,0,1,5.11,0,4.322,4.322,0,0,1,.993,2.906A4.273,4.273,0,0,1,176.134,105.04Z" transform="translate(-68.462 4021.006)"/><path class="a" d="M249.944,95.826a1.853,1.853,0,0,0-1.223-.412,4.913,4.913,0,0,0-2.227.521,3.672,3.672,0,0,0-1.6,1.513v-.315a1.455,1.455,0,0,0-.413-1.054,1.491,1.491,0,0,0-2.082,0,1.454,1.454,0,0,0-.411,1.054v10a1.452,1.452,0,0,0,.411,1.054,1.491,1.491,0,0,0,2.082,0,1.453,1.453,0,0,0,.413-1.054V101.4a4.32,4.32,0,0,1,.375-1.877,2.819,2.819,0,0,1,.956-1.174,2.153,2.153,0,0,1,1.211-.388,1.969,1.969,0,0,1,.545.073c.17.048.278.081.327.1a2.419,2.419,0,0,0,.824.17,1.278,1.278,0,0,0,.92-.375,1.5,1.5,0,0,0,.388-1.126A1.228,1.228,0,0,0,249.944,95.826Z" transform="translate(-127.392 4021.006)"/><path class="a" d="M293.037,89.088a1.333,1.333,0,0,0,.969-.376,1.243,1.243,0,0,0,.388-.932,1.325,1.325,0,0,0-1.356-1.356h-1.719v-1.55a1.454,1.454,0,0,0-.411-1.054,1.363,1.363,0,0,0-1.017-.423,1.447,1.447,0,0,0-1.478,1.477v1.55H287.3a1.337,1.337,0,0,0-.968.376,1.247,1.247,0,0,0-.388.932,1.325,1.325,0,0,0,1.356,1.356h1.114v6.683q0,2.083,1.029,2.725a4.7,4.7,0,0,0,2.531.641,2.961,2.961,0,0,0,1.61-.448,1.294,1.294,0,0,0,.436-1.962.807.807,0,0,0-.618-.327,1.453,1.453,0,0,0-.557.121,2.052,2.052,0,0,1-.532.1,1.073,1.073,0,0,1-.727-.23.927.927,0,0,1-.266-.739V89.088Z" transform="translate(-162.046 4030.48)"/><path class="a" d="M463.476,46.558a7.578,7.578,0,0,0-4.141-1.177,6.352,6.352,0,0,0-2.982.746,6.863,6.863,0,0,0-2.219,1.739v-.133a1.987,1.987,0,0,0-.563-1.441,2.039,2.039,0,0,0-2.848,0,1.983,1.983,0,0,0-.564,1.441V68.04a1.969,1.969,0,0,0,.564,1.457,1.929,1.929,0,0,0,1.423.563,1.9,1.9,0,0,0,1.425-.58,1.987,1.987,0,0,0,.563-1.44V61.547a7.947,7.947,0,0,0,2.335,1.574,7.115,7.115,0,0,0,3,.646,7.384,7.384,0,0,0,4.059-1.176,8.138,8.138,0,0,0,2.9-3.28,10.408,10.408,0,0,0,1.061-4.753,10.2,10.2,0,0,0-1.076-4.737A8.252,8.252,0,0,0,463.476,46.558Zm-1.16,11.975a4.637,4.637,0,0,1-6.99,0,5.9,5.9,0,0,1-1.357-3.975,5.839,5.839,0,0,1,1.357-3.959,4.425,4.425,0,0,1,3.511-1.574,4.372,4.372,0,0,1,3.494,1.574,6.505,6.505,0,0,1-.015,7.934Z" transform="translate(-291.521 4060.455)"/><path class="b" d="M364.666,15.912a6.4,6.4,0,0,0-3.642-1.626,6.626,6.626,0,0,0-4.022.869,6.074,6.074,0,0,0-2.673,3.665,6.759,6.759,0,0,0-.086,1.025c-.07,1.57-.043,16.313,0,17.253a2.3,2.3,0,0,0,1.508,1.615,2.491,2.491,0,0,0,2.428-.523,2.049,2.049,0,0,0,.625-1.281c0-.754.018-15.769,0-15.816a.192.192,0,0,0-.074-.1.227.227,0,0,0-.172-.022h-1.336a.312.312,0,0,1-.2-.045.3.3,0,0,1-.073-.379l3.09-3.286a.39.39,0,0,1,.576-.033c.219.175,1.418,1.46,3.029,3.241a.278.278,0,0,1,.074.334.337.337,0,0,1-.356.167h-1.471c.195,1.27.081,15.724-.049,16.384a5,5,0,0,1-.368,1.237,5.117,5.117,0,0,1-1.827,2.083,5.851,5.851,0,0,1-6.033.134,5.286,5.286,0,0,1-2.33-3.141,5.434,5.434,0,0,1-.2-.9V28.05a2.04,2.04,0,0,0-.846-1.259,2.517,2.517,0,0,0-1.827-.356,2.928,2.928,0,0,0-.625.2,2.164,2.164,0,0,0-.5.312,1.878,1.878,0,0,0-.49.646,16.28,16.28,0,0,0-.184,3.316c.045,2.506.09,4.873.135,7.379a9.018,9.018,0,0,0,3.421,5.414,10.39,10.39,0,0,0,4.733,1.949,11.036,11.036,0,0,0,7.063-1.37,8.9,8.9,0,0,0,4.439-6.628c0-.067,0-14.214.037-16.076.052-2.641.06-2.018.012-2.313A5.723,5.723,0,0,0,364.666,15.912Z" transform="translate(-209.875 4085)"/><path class="a" d="M88.246,45.9c-13.984-.237-58.931-.118-61.367.067-1.871.142-3.551.095-4.976.908a8.452,8.452,0,0,0-3.312,2.684A6.481,6.481,0,0,0,17.4,53.609c0,4.605,3.695,6.579,7.813,7.089a11.282,11.282,0,0,1,4.532,1.31,2.523,2.523,0,0,1,1.51,2.608c.061,1.126-.525,1.637-1.47,2.258a6.394,6.394,0,0,1-3.419.906,8.968,8.968,0,0,1-3.249-.548,12.334,12.334,0,0,1-2.834-1.738,1.947,1.947,0,0,0-1.213-.425,1.989,1.989,0,0,0-1.459.617,1.847,1.847,0,0,0-.6,1.454,2.588,2.588,0,0,0,.968,1.9,10.952,10.952,0,0,0,3.8,2.224,14.953,14.953,0,0,0,4.622.662,11.55,11.55,0,0,0,4.53-.936,8.66,8.66,0,0,0,3.416-2.67,6.623,6.623,0,0,0,1.284-3.967,6.708,6.708,0,0,0-.941-3.9,6.192,6.192,0,0,0-2.9-2.357,19.85,19.85,0,0,0-4.809-1.3,10.453,10.453,0,0,1-3.963-1.227A3.624,3.624,0,0,1,21.877,54.5a2.464,2.464,0,0,1-.447-1.245,2.531,2.531,0,0,1,.508-1.572,2.9,2.9,0,0,1,1.2-1.062,12.749,12.749,0,0,1,4.316-.551c2.981.042,47.124.019,60.807.009a2.091,2.091,0,1,0-.017-4.183Z" transform="translate(50 4060.151)"/><path class="b" d="M744.18,113l-2.869,2.8,3.9,7.3,4.349-.1Z" transform="translate(-521.079 4007.144)"/><path class="b" d="M569.953,48.063a6.958,6.958,0,0,1-5.529,3.257h-.07a9.72,9.72,0,0,1-7.126-2.9A10.47,10.47,0,0,1,554.5,40.6c.168-3.823,2.185-8.714,6.214-10.419a11.25,11.25,0,0,1,5.421-.631,12.757,12.757,0,0,1,5.006,1.6l1.857-3.3a16.522,16.522,0,0,0-6.483-2.063,14.882,14.882,0,0,0-7.275.911c-5.572,2.357-8.295,8.6-8.52,13.737a14.214,14.214,0,0,0,3.775,10.6,13.467,13.467,0,0,0,9.843,4.069h.06a10.758,10.758,0,0,0,8.7-4.942c.634-.951,1.531-2.5,2.546-4.352l-2.73-2.894C571.715,45.137,570.65,47.017,569.953,48.063Z" transform="translate(-370.796 4075.986)"/><path class="b" d="M668.268,23.8l5.665,10.613,1.74-1.223,1.424-1L668.15,15.541l-1.633,3.3c-.059.119-4.172,8.413-7.582,14.809l3.169,2.1C664.265,31.706,666.7,26.917,668.268,23.8Z" transform="translate(-456.131 4083.982)"/><path class="b" d="M739.474,94.22h0l-1.424,1Z" transform="translate(-518.509 4021.948)"/><path class="a" d="M666,60.605,655.1,53.389l10.818,11.467L691.041,40.3Z" transform="translate(-453.104 4064.458)"/><path class="a" d="M696.591,87.813,685.3,97.453l-5.721-4.666,5.717,3.061Z" transform="translate(-472.406 4026.999)"/><text class="c" transform="translate(67.04 4144.238)"><tspan x="0" y="0">LAUNCHPAD FOR STARTUPCA</tspan></text></g></svg>