<svg xmlns="http://www.w3.org/2000/svg" width="156.049" height="156.049" viewBox="0 0 156.049 156.049"><defs><style>.a{fill:#ff7e02;}.b{fill:#fff;}</style></defs><ellipse class="a" cx="78.025" cy="78.025" rx="78.025" ry="78.025" transform="translate(0)"/><g transform="translate(60.834 34.953)"><path class="b" d="M409.041,482.064H388.766V443.38h-8.893V427.4h29.168Zm-17.489-2.787h14.7V430.188H382.66v10.4h8.892Z" transform="translate(-379.873 -427.402)"/><g transform="translate(6.348 67.24)"><path class="b" d="M406.2,545.4h-9.118a1.056,1.056,0,0,1-1.053-1.052h0a1.056,1.056,0,0,1,1.053-1.053H406.2a1.055,1.055,0,0,1,1.053,1.053h0A1.055,1.055,0,0,1,406.2,545.4Z" transform="translate(-388.638 -511.978)"/><path class="b" d="M404.943,549.5h-5.7a1.056,1.056,0,0,1-1.053-1.052h0a1.056,1.056,0,0,1,1.053-1.052h5.7A1.056,1.056,0,0,1,406,548.451h0A1.056,1.056,0,0,1,404.943,549.5Z" transform="translate(-388.961 -512.591)"/><path class="b" d="M405.14,536.862h-9.69a.793.793,0,0,1-.793-.793,9.668,9.668,0,0,0-3.118-7.1,12.957,12.957,0,1,1,17.507,0,9.717,9.717,0,0,0-3.112,7.094A.793.793,0,0,1,405.14,536.862Zm-8.925-1.587h8.161a11.33,11.33,0,0,1,3.6-7.47,11.369,11.369,0,1,0-15.363,0A11.267,11.267,0,0,1,396.215,535.275Z" transform="translate(-387.338 -506.469)"/><path class="b" d="M397.452,514.792a6.744,6.744,0,0,0-2.618,9.142.916.916,0,0,1-.358,1.242.894.894,0,0,1-.434.1.907.907,0,0,1-.793-.464,8.545,8.545,0,0,1,3.322-11.611.907.907,0,1,1,.882,1.586Z" transform="translate(-388.062 -507.459)"/></g></g></svg>