<svg xmlns="http://www.w3.org/2000/svg" width="156.049" height="156.049" viewBox="0 0 156.049 156.049"><defs><style>.a{fill:#ff7e02;}.b{fill:#fff;}</style></defs><ellipse class="a" cx="78.025" cy="78.025" rx="78.025" ry="78.025" transform="translate(0)"/><g transform="translate(55 43.513)"><path class="b" d="M706.392,493.313H662.03V480.565l19.2-17.754a14.268,14.268,0,0,0,2.959-3.528,5.736,5.736,0,0,0,.669-2.564,2.266,2.266,0,0,0-.794-1.928,4.446,4.446,0,0,0-2.851-.754,7,7,0,0,0-3.724,1.057,6.847,6.847,0,0,0-2.656,2.974l-.617,1.27-15.731-7.866.673-1.262a23.109,23.109,0,0,1,9.216-9.339,32.275,32.275,0,0,1,25.9-1.293,18.506,18.506,0,0,1,8,6.175,15.659,15.659,0,0,1,2.931,9.338,19.652,19.652,0,0,1-1.956,8.648c-1.3,2.686-3.722,5.6-7.4,8.912l-4.742,4.316h15.282Zm-41.575-2.786H703.6V479.752H683.91l10.072-9.167c3.361-3.028,5.634-5.74,6.763-8.063a16.9,16.9,0,0,0,1.676-7.432,12.747,12.747,0,0,0-2.406-7.71,15.759,15.759,0,0,0-6.821-5.235,29.519,29.519,0,0,0-23.451,1.152,20.482,20.482,0,0,0-7.41,6.984l10.687,5.344a9.521,9.521,0,0,1,3.021-2.912,9.834,9.834,0,0,1,5.171-1.463,7.084,7.084,0,0,1,4.63,1.4,5.1,5.1,0,0,1,1.8,4.073,8.5,8.5,0,0,1-.964,3.812,16.622,16.622,0,0,1-3.552,4.318l-18.31,16.935Z" transform="translate(-658.483 -437.467)"/><path class="b" d="M671.815,526.216v19.653h29.174V526.216Zm14.565,10.308-11.069-8.531h22.174Zm-3.837-.713-8.951,7.3v-14.2Zm1.445,1.115,2.39,1.84,2.518-1.935,8.744,7.262H675.2Zm6.353-1.2,8.871-6.814v14.181Z" transform="translate(-660.477 -450.742)"/></g></svg>