<svg xmlns="http://www.w3.org/2000/svg" width="156.049" height="156.049" viewBox="0 0 156.049 156.049"><defs><style>.a{fill:#ff7e02;}.b{fill:#fff;}</style></defs><ellipse class="a" cx="78.025" cy="78.025" rx="78.025" ry="78.025" transform="translate(0)"/><g transform="translate(51.324 43.513)"><path class="b" d="M961.791,493.313a52.96,52.96,0,0,1-11.227-1.217,35.554,35.554,0,0,1-9.911-3.63l-1.117-.63,7.1-15.454,1.327.771a26.059,26.059,0,0,0,6.507,2.671,26.493,26.493,0,0,0,6.724.919,8.7,8.7,0,0,0,4.211-.86,1.84,1.84,0,0,0,1.14-1.749c0-.536,0-2.163-4.757-2.163h-8.285V459.263l5.708-5.818h-16.6V437.467h41.47v12.71l-8.41,8.539a17.187,17.187,0,0,1,7.682,5.155h0a15.642,15.642,0,0,1,3.543,10.263,17.442,17.442,0,0,1-2.773,9.453,19.632,19.632,0,0,1-8.474,7.073A32.524,32.524,0,0,1,961.791,493.313Zm-18.639-6.674a34.125,34.125,0,0,0,8,2.735,50.123,50.123,0,0,0,10.635,1.153,29.79,29.79,0,0,0,12.67-2.386,16.916,16.916,0,0,0,7.31-6.043,14.7,14.7,0,0,0,2.34-7.963,12.759,12.759,0,0,0-2.9-8.486,15.5,15.5,0,0,0-8.489-4.909l-2.374-.587L981.3,449.034v-8.781H945.4v10.4h20.452l-9.558,9.743v8.783h5.5c6.235,0,7.544,2.692,7.544,4.95a4.622,4.622,0,0,1-2.566,4.181,11.377,11.377,0,0,1-5.572,1.215,30.259,30.259,0,0,1-13.289-3.236Z" transform="translate(-939.536 -437.467)"/><path class="b" d="M961.113,544.178l4.794-4.793,2.017,2.016,9.31-9.307,1.551,1.551.606-3.709.175-.175-.127-.126.453-2.773-6.783,1.108,1.748,1.747-6.933,6.932-2.017-2.016-5.115,5.115V524.434h-2.941v22.684h22.684v-2.94Z" transform="translate(-942.275 -450.475)"/></g></svg>