<svg xmlns="http://www.w3.org/2000/svg" xmlns:xlink="http://www.w3.org/1999/xlink" width="10.546" height="10.546" viewBox="0 0 10.546 10.546"><defs><style>.a{fill:url(#a);}.b{fill:url(#b);}.c{fill:url(#c);}</style><linearGradient id="a" x1="0.084" y1="0.916" x2="0.916" y2="0.084" gradientUnits="objectBoundingBox"><stop offset="0" stop-color="#ffd600"/><stop offset="0.5" stop-color="#ff0100"/><stop offset="1" stop-color="#d800b9"/></linearGradient><linearGradient id="b" x1="0.146" y1="0.854" x2="0.854" y2="0.146" gradientUnits="objectBoundingBox"><stop offset="0" stop-color="#ff6400"/><stop offset="0.5" stop-color="#ff0100"/><stop offset="1" stop-color="#fd0056"/></linearGradient><linearGradient id="c" x1="0.146" y1="0.854" x2="0.854" y2="0.146" gradientUnits="objectBoundingBox"><stop offset="0" stop-color="#f30072"/><stop offset="1" stop-color="#e50097"/></linearGradient></defs><path class="a" d="M10.514,3.1a3.871,3.871,0,0,0-.245-1.28A2.584,2.584,0,0,0,9.661.885,2.585,2.585,0,0,0,8.727.277,3.871,3.871,0,0,0,7.447.032C6.885.006,6.7,0,5.273,0S3.661.006,3.1.032a3.872,3.872,0,0,0-1.28.245A2.584,2.584,0,0,0,.885.885a2.585,2.585,0,0,0-.608.934A3.871,3.871,0,0,0,.032,3.1C.006,3.661,0,3.841,0,5.273S.006,6.885.032,7.447a3.87,3.87,0,0,0,.245,1.28,2.584,2.584,0,0,0,.608.934,2.584,2.584,0,0,0,.934.608,3.869,3.869,0,0,0,1.28.245c.562.026.742.032,2.174.032s1.612-.006,2.174-.032a3.87,3.87,0,0,0,1.28-.245,2.7,2.7,0,0,0,1.542-1.542,3.87,3.87,0,0,0,.245-1.28c.026-.562.032-.742.032-2.174S10.54,3.661,10.514,3.1ZM9.565,7.4a2.918,2.918,0,0,1-.182.979,1.746,1.746,0,0,1-1,1,2.917,2.917,0,0,1-.979.182c-.556.025-.723.031-2.131.031S3.7,9.591,3.142,9.565a2.918,2.918,0,0,1-.979-.182,1.634,1.634,0,0,1-.606-.395,1.633,1.633,0,0,1-.395-.606A2.918,2.918,0,0,1,.981,7.4C.955,6.848.95,6.681.95,5.273S.955,3.7.981,3.142a2.92,2.92,0,0,1,.182-.979,1.635,1.635,0,0,1,.395-.606,1.633,1.633,0,0,1,.606-.394A2.917,2.917,0,0,1,3.142.981C3.7.955,3.865.95,5.273.95h0C6.681.95,6.848.955,7.4.981a2.918,2.918,0,0,1,.979.182,1.635,1.635,0,0,1,.606.394,1.633,1.633,0,0,1,.394.606,2.915,2.915,0,0,1,.182.979c.025.556.031.723.031,2.131S9.591,6.848,9.565,7.4Zm0,0" transform="translate(0 0)"/><path class="b" d="M127.247,124.539a2.708,2.708,0,1,0,2.708,2.708A2.708,2.708,0,0,0,127.247,124.539Zm0,4.466A1.758,1.758,0,1,1,129,127.247,1.758,1.758,0,0,1,127.247,129Zm0,0" transform="translate(-121.974 -121.974)"/><path class="c" d="M363.2,89.258a.633.633,0,1,1-.633-.633A.633.633,0,0,1,363.2,89.258Zm0,0" transform="translate(-354.474 -86.8)"/></svg>