<svg xmlns="http://www.w3.org/2000/svg" width="58.937" height="58.937" viewBox="0 0 58.937 58.937"><defs><style>.a{fill:none;fill-rule:evenodd;}.b{fill:#2e3e48;}</style></defs><path class="a" d="M0,0H58.937V58.937H0Z"/><path class="b" d="M15.7,27.66a1.989,1.989,0,0,1,1.989,1.989V52.84A1.989,1.989,0,0,1,15.7,54.829H5.989A1.989,1.989,0,0,1,4,52.839V29.647a1.989,1.989,0,0,1,1.989-1.989ZM32.621,16.314A1.989,1.989,0,0,1,34.61,18.3V52.84a1.989,1.989,0,0,1-1.989,1.989h-9.71a1.989,1.989,0,0,1-1.989-1.989V18.3a1.99,1.99,0,0,1,1.989-1.989ZM49.193,2a1.989,1.989,0,0,1,1.989,1.989v48.85a1.989,1.989,0,0,1-1.989,1.989h-9.71a1.989,1.989,0,0,1-1.989-1.989V3.989A1.988,1.988,0,0,1,39.483,2ZM13.71,31.639H7.978V50.851H13.71V31.638ZM30.632,20.294H24.9V50.851h5.732V20.292ZM47.2,5.978H41.472V50.851H47.2Z" transform="translate(1.894 0.947)"/></svg>