<svg xmlns="http://www.w3.org/2000/svg" width="48.576" height="48.576" viewBox="0 0 48.576 48.576"><defs><style>.a{fill:none;fill-rule:evenodd;}.b{fill:#2e3e48;}</style></defs><path class="a" d="M0,0H48.576V48.576H0Z"/><path class="b" d="M13.528,9.143a1.672,1.672,0,0,1,1.178.483l15.7,15.522a4.322,4.322,0,0,1,0,6.152,4.437,4.437,0,0,1-6.093.115c-.026-.021-.051-.045-.075-.067l-.052-.047-5.722-5.657a.721.721,0,0,0-1.013,0,.708.708,0,0,0,0,1.007l7.566,7.478,11.9,2.644a4.281,4.281,0,0,1,3.941,4.106,4.068,4.068,0,0,1-1.219,2.915A4.168,4.168,0,0,1,36.7,45H23.4c-2.967,0-3.419-.984-5.943-3.295L2.371,27.055h-.7a1.647,1.647,0,1,1,0-3.295H3.06a1.676,1.676,0,0,1,1.178.482L21.908,41.709H36.7a.84.84,0,0,0,.594-.243.817.817,0,0,0,.243-.583c0-.546-.706-.793-1.08-.848L24.013,37.319a1.675,1.675,0,0,1-.95-.468L15.1,28.978l-.081-.09-.032-.034a3.977,3.977,0,0,1,.114-5.535,4.083,4.083,0,0,1,5.73,0l5.715,5.649h0a1.081,1.081,0,0,0,1.511,0,1.049,1.049,0,0,0,0-1.491L12.839,12.437H1.666a1.647,1.647,0,1,1,0-3.295ZM41.987,2.5a6.417,6.417,0,0,1,6.589,6.457c0,3.6-1.841,5.964-8.493,11.785l-1.2,1.044-.175.17a2.441,2.441,0,0,1-3.405,0l-.2-.193-.389-.335c-7.161-6.209-9.206-8.638-9.279-12.264l0-.206A6.417,6.417,0,0,1,32.022,2.5a7.25,7.25,0,0,1,4.923,1.986L37,4.544l.06-.058a7.28,7.28,0,0,1,4.606-1.978Zm0,3.355A3.833,3.833,0,0,0,39.2,7.126l-.155.166A2.921,2.921,0,0,1,34.8,7.126l-.162-.174a3.848,3.848,0,0,0-2.621-1.1,3.046,3.046,0,0,0-3.2,3.1c0,2.149,1.462,4.072,6.752,8.746L37,18.949l1.11-.968c5.434-4.777,7-6.752,7.065-8.889l0-.134a3.046,3.046,0,0,0-3.2-3.1Z" transform="translate(0 0.536)"/></svg>