<svg xmlns="http://www.w3.org/2000/svg" width="12.096" height="12.096" viewBox="0 0 12.096 12.096"><defs><style>.a{fill:#0077b5;}</style></defs><path class="a" d="M16.3,15.853h0V11.416c0-2.17-.467-3.842-3-3.842a2.634,2.634,0,0,0-2.372,1.3h-.035v-1.1H8.489v8.075h2.5v-4c0-1.053.2-2.071,1.5-2.071,1.285,0,1.3,1.2,1.3,2.138v3.932Z" transform="translate(-4.211 -3.757)"/><path class="a" d="M.4,7.977H2.9v8.075H.4Z" transform="translate(-0.196 -3.957)"/><path class="a" d="M1.452,0A1.459,1.459,0,1,0,2.9,1.452,1.453,1.453,0,0,0,1.452,0Z"/></svg>