<svg xmlns="http://www.w3.org/2000/svg" width="41.781" height="41.781" viewBox="0 0 41.781 41.781"><defs><style>.a{fill:none;fill-rule:evenodd;}.b{fill:#2e3e48;}</style></defs><path class="a" d="M0,0H41.781V41.781H0Z"/><path class="b" d="M23.788,1A1.41,1.41,0,0,1,25.2,2.41V38.48a1.41,1.41,0,1,1-2.82,0V24.111H16.965a1.41,1.41,0,0,1-1.41-1.41V9.233A8.242,8.242,0,0,1,23.788,1ZM37.724,1a1.41,1.41,0,0,1,1.41,1.41V10.7a5.619,5.619,0,0,1-4.2,5.429V38.48a1.41,1.41,0,1,1-2.82,0V16.126a5.619,5.619,0,0,1-4.2-5.429V2.41a1.41,1.41,0,1,1,2.82,0V10.7A2.791,2.791,0,0,0,32.115,13.1V2.41a1.41,1.41,0,0,1,2.82,0V13.1A2.791,2.791,0,0,0,36.314,10.7V2.41A1.41,1.41,0,0,1,37.724,1ZM7.226,1a5.615,5.615,0,0,1,5.609,5.609V10.7a5.619,5.619,0,0,1-4.2,5.429V38.48a1.41,1.41,0,0,1-2.82,0V16.126a5.619,5.619,0,0,1-4.2-5.429V6.608A5.616,5.616,0,0,1,7.227,1ZM22.378,4.006a5.423,5.423,0,0,0-4,5.227V21.291h4ZM7.226,3.82A2.791,2.791,0,0,0,4.438,6.609V10.7a2.789,2.789,0,1,0,5.578,0V6.608A2.792,2.792,0,0,0,7.227,3.82Z" transform="translate(0.072 0.045)"/></svg>