<svg xmlns="http://www.w3.org/2000/svg" width="11.129" height="9.042" viewBox="0 0 11.129 9.042"><defs><style>.a{fill:#03a9f4;}</style></defs><path class="a" d="M11.129,49.07a4.757,4.757,0,0,1-1.315.36,2.269,2.269,0,0,0,1-1.261,4.56,4.56,0,0,1-1.447.552,2.281,2.281,0,0,0-3.947,1.56,2.349,2.349,0,0,0,.053.52,6.458,6.458,0,0,1-4.7-2.387,2.282,2.282,0,0,0,.7,3.049,2.253,2.253,0,0,1-1.031-.281v.025a2.292,2.292,0,0,0,1.828,2.242,2.277,2.277,0,0,1-.6.075,2.018,2.018,0,0,1-.432-.039,2.3,2.3,0,0,0,2.132,1.589,4.584,4.584,0,0,1-2.829.973A4.274,4.274,0,0,1,0,56.019a6.423,6.423,0,0,0,3.5,1.024A6.449,6.449,0,0,0,9.994,50.55c0-.1,0-.2-.008-.295A4.552,4.552,0,0,0,11.129,49.07Z" transform="translate(0 -48)"/></svg>